G04 #@! TF.FileFunction,Soldermask,Bot*
%FSLAX46Y46*%
G04 Gerber Fmt 4.6, Leading zero omitted, Abs format (unit mm)*
G04 Created by KiCad (PCBNEW 4.0.3-1.fc24-product) date Sat Sep 10 15:23:13 2016*
%MOMM*%
%LPD*%
G01*
G04 APERTURE LIST*
%ADD10C,0.100000*%
%ADD11R,1.900000X1.650000*%
%ADD12R,1.650000X1.900000*%
%ADD13R,2.200860X3.549600*%
%ADD14O,2.127200X2.432000*%
%ADD15C,2.635200*%
%ADD16O,2.432000X2.432000*%
%ADD17O,2.432000X2.127200*%
%ADD18O,2.635200X2.635200*%
G04 APERTURE END LIST*
D10*
D11*
X93750000Y-67000000D03*
X91250000Y-67000000D03*
X97250000Y-61250000D03*
X99750000Y-61250000D03*
D12*
X87000000Y-73250000D03*
X87000000Y-75750000D03*
X93750000Y-60750000D03*
X93750000Y-58250000D03*
X85000000Y-67000000D03*
X85000000Y-64500000D03*
D11*
X93750000Y-71500000D03*
X91250000Y-71500000D03*
X83400000Y-69600000D03*
X80900000Y-69600000D03*
D13*
X122200000Y-60451960D03*
X122200000Y-56200000D03*
D11*
X72500000Y-60000000D03*
X75000000Y-60000000D03*
D14*
X160160000Y-54000000D03*
X157620000Y-54000000D03*
X155080000Y-54000000D03*
X152540000Y-54000000D03*
X150000000Y-54000000D03*
X147460000Y-54000000D03*
D15*
X128000000Y-86800000D03*
D16*
X86250000Y-52750000D03*
X88790000Y-52750000D03*
D17*
X160250000Y-89330000D03*
X160250000Y-86790000D03*
X160250000Y-84250000D03*
X160250000Y-81710000D03*
X160250000Y-79170000D03*
D14*
X81000000Y-52750000D03*
X78460000Y-52750000D03*
X75920000Y-52750000D03*
D18*
X54540000Y-86300000D03*
X54540000Y-74860000D03*
X54540000Y-63400000D03*
D14*
X52000000Y-52000000D03*
X54540000Y-52000000D03*
X57080000Y-52000000D03*
X59620000Y-52000000D03*
X62160000Y-52000000D03*
X64700000Y-52000000D03*
X67240000Y-52000000D03*
X69780000Y-52000000D03*
X99040000Y-86220000D03*
X101580000Y-86220000D03*
X104120000Y-86220000D03*
X106660000Y-86220000D03*
X109200000Y-86220000D03*
X111740000Y-86220000D03*
X114280000Y-86220000D03*
X116820000Y-86220000D03*
X119360000Y-86220000D03*
X121900000Y-86220000D03*
X137340000Y-74770000D03*
X139880000Y-74770000D03*
X142420000Y-74770000D03*
X144960000Y-74770000D03*
X147500000Y-74770000D03*
X150040000Y-74770000D03*
X152580000Y-74770000D03*
X155120000Y-74770000D03*
X157660000Y-74770000D03*
X160200000Y-74770000D03*
X76800000Y-90000000D03*
X79340000Y-90000000D03*
X81880000Y-90000000D03*
X84420000Y-90000000D03*
X86960000Y-90000000D03*
X89500000Y-90000000D03*
X92040000Y-90000000D03*
X94580000Y-90000000D03*
X99040000Y-78600000D03*
X101580000Y-78600000D03*
X104120000Y-78600000D03*
X106660000Y-78600000D03*
X109200000Y-78600000D03*
X111740000Y-78600000D03*
X114280000Y-78600000D03*
X116820000Y-78600000D03*
X119360000Y-78600000D03*
X121900000Y-78600000D03*
X137340000Y-67150000D03*
X139880000Y-67150000D03*
X142420000Y-67150000D03*
X144960000Y-67150000D03*
X147500000Y-67150000D03*
X150040000Y-67150000D03*
X152580000Y-67150000D03*
X155120000Y-67150000D03*
X157660000Y-67150000D03*
X160200000Y-67150000D03*
M02*
