G04 #@! TF.FileFunction,Legend,Top*
%FSLAX46Y46*%
G04 Gerber Fmt 4.6, Leading zero omitted, Abs format (unit mm)*
G04 Created by KiCad (PCBNEW 4.0.3-1.fc24-product) date Sat Sep 10 15:23:13 2016*
%MOMM*%
%LPD*%
G01*
G04 APERTURE LIST*
%ADD10C,0.100000*%
%ADD11C,0.200000*%
%ADD12C,0.300000*%
%ADD13C,0.150000*%
G04 APERTURE END LIST*
D10*
D11*
X154342857Y-79400000D02*
X154914286Y-79400000D01*
X154228572Y-79742857D02*
X154628572Y-78542857D01*
X155028572Y-79742857D01*
X155428571Y-78542857D02*
X155428571Y-79514286D01*
X155485714Y-79628571D01*
X155542857Y-79685714D01*
X155657143Y-79742857D01*
X155885714Y-79742857D01*
X156000000Y-79685714D01*
X156057143Y-79628571D01*
X156114286Y-79514286D01*
X156114286Y-78542857D01*
X156571429Y-78542857D02*
X157371429Y-79742857D01*
X157371429Y-78542857D02*
X156571429Y-79742857D01*
X158342857Y-78942857D02*
X158342857Y-79742857D01*
X158057143Y-78485714D02*
X157771428Y-79342857D01*
X158514286Y-79342857D01*
X154342857Y-81800000D02*
X154914286Y-81800000D01*
X154228572Y-82142857D02*
X154628572Y-80942857D01*
X155028572Y-82142857D01*
X155428571Y-80942857D02*
X155428571Y-81914286D01*
X155485714Y-82028571D01*
X155542857Y-82085714D01*
X155657143Y-82142857D01*
X155885714Y-82142857D01*
X156000000Y-82085714D01*
X156057143Y-82028571D01*
X156114286Y-81914286D01*
X156114286Y-80942857D01*
X156571429Y-80942857D02*
X157371429Y-82142857D01*
X157371429Y-80942857D02*
X156571429Y-82142857D01*
X157714286Y-80942857D02*
X158457143Y-80942857D01*
X158057143Y-81400000D01*
X158228571Y-81400000D01*
X158342857Y-81457143D01*
X158400000Y-81514286D01*
X158457143Y-81628571D01*
X158457143Y-81914286D01*
X158400000Y-82028571D01*
X158342857Y-82085714D01*
X158228571Y-82142857D01*
X157885714Y-82142857D01*
X157771428Y-82085714D01*
X157714286Y-82028571D01*
X154342857Y-84400000D02*
X154914286Y-84400000D01*
X154228572Y-84742857D02*
X154628572Y-83542857D01*
X155028572Y-84742857D01*
X155428571Y-83542857D02*
X155428571Y-84514286D01*
X155485714Y-84628571D01*
X155542857Y-84685714D01*
X155657143Y-84742857D01*
X155885714Y-84742857D01*
X156000000Y-84685714D01*
X156057143Y-84628571D01*
X156114286Y-84514286D01*
X156114286Y-83542857D01*
X156571429Y-83542857D02*
X157371429Y-84742857D01*
X157371429Y-83542857D02*
X156571429Y-84742857D01*
X157771428Y-83657143D02*
X157828571Y-83600000D01*
X157942857Y-83542857D01*
X158228571Y-83542857D01*
X158342857Y-83600000D01*
X158400000Y-83657143D01*
X158457143Y-83771429D01*
X158457143Y-83885714D01*
X158400000Y-84057143D01*
X157714286Y-84742857D01*
X158457143Y-84742857D01*
X154342857Y-87200000D02*
X154914286Y-87200000D01*
X154228572Y-87542857D02*
X154628572Y-86342857D01*
X155028572Y-87542857D01*
X155428571Y-86342857D02*
X155428571Y-87314286D01*
X155485714Y-87428571D01*
X155542857Y-87485714D01*
X155657143Y-87542857D01*
X155885714Y-87542857D01*
X156000000Y-87485714D01*
X156057143Y-87428571D01*
X156114286Y-87314286D01*
X156114286Y-86342857D01*
X156571429Y-86342857D02*
X157371429Y-87542857D01*
X157371429Y-86342857D02*
X156571429Y-87542857D01*
X158457143Y-87542857D02*
X157771428Y-87542857D01*
X158114286Y-87542857D02*
X158114286Y-86342857D01*
X158000000Y-86514286D01*
X157885714Y-86628571D01*
X157771428Y-86685714D01*
X154142857Y-89600000D02*
X154714286Y-89600000D01*
X154028572Y-89942857D02*
X154428572Y-88742857D01*
X154828572Y-89942857D01*
X155228571Y-88742857D02*
X155228571Y-89714286D01*
X155285714Y-89828571D01*
X155342857Y-89885714D01*
X155457143Y-89942857D01*
X155685714Y-89942857D01*
X155800000Y-89885714D01*
X155857143Y-89828571D01*
X155914286Y-89714286D01*
X155914286Y-88742857D01*
X156371429Y-88742857D02*
X157171429Y-89942857D01*
X157171429Y-88742857D02*
X156371429Y-89942857D01*
X157857143Y-88742857D02*
X157971428Y-88742857D01*
X158085714Y-88800000D01*
X158142857Y-88857143D01*
X158200000Y-88971429D01*
X158257143Y-89200000D01*
X158257143Y-89485714D01*
X158200000Y-89714286D01*
X158142857Y-89828571D01*
X158085714Y-89885714D01*
X157971428Y-89942857D01*
X157857143Y-89942857D01*
X157742857Y-89885714D01*
X157685714Y-89828571D01*
X157628571Y-89714286D01*
X157571428Y-89485714D01*
X157571428Y-89200000D01*
X157628571Y-88971429D01*
X157685714Y-88857143D01*
X157742857Y-88800000D01*
X157857143Y-88742857D01*
X137600000Y-72828571D02*
X137600000Y-72257142D01*
X137942857Y-72942856D02*
X136742857Y-72542856D01*
X137942857Y-72142856D01*
X137942857Y-71114285D02*
X137942857Y-71800000D01*
X137942857Y-71457142D02*
X136742857Y-71457142D01*
X136914286Y-71571428D01*
X137028571Y-71685714D01*
X137085714Y-71800000D01*
X137942857Y-69971428D02*
X137942857Y-70657143D01*
X137942857Y-70314285D02*
X136742857Y-70314285D01*
X136914286Y-70428571D01*
X137028571Y-70542857D01*
X137085714Y-70657143D01*
X140000000Y-72828571D02*
X140000000Y-72257142D01*
X140342857Y-72942856D02*
X139142857Y-72542856D01*
X140342857Y-72142856D01*
X140342857Y-71114285D02*
X140342857Y-71800000D01*
X140342857Y-71457142D02*
X139142857Y-71457142D01*
X139314286Y-71571428D01*
X139428571Y-71685714D01*
X139485714Y-71800000D01*
X139257143Y-70657143D02*
X139200000Y-70600000D01*
X139142857Y-70485714D01*
X139142857Y-70200000D01*
X139200000Y-70085714D01*
X139257143Y-70028571D01*
X139371429Y-69971428D01*
X139485714Y-69971428D01*
X139657143Y-70028571D01*
X140342857Y-70714285D01*
X140342857Y-69971428D01*
X142800000Y-72828571D02*
X142800000Y-72257142D01*
X143142857Y-72942856D02*
X141942857Y-72542856D01*
X143142857Y-72142856D01*
X143142857Y-71114285D02*
X143142857Y-71800000D01*
X143142857Y-71457142D02*
X141942857Y-71457142D01*
X142114286Y-71571428D01*
X142228571Y-71685714D01*
X142285714Y-71800000D01*
X141942857Y-70714285D02*
X141942857Y-69971428D01*
X142400000Y-70371428D01*
X142400000Y-70200000D01*
X142457143Y-70085714D01*
X142514286Y-70028571D01*
X142628571Y-69971428D01*
X142914286Y-69971428D01*
X143028571Y-70028571D01*
X143085714Y-70085714D01*
X143142857Y-70200000D01*
X143142857Y-70542857D01*
X143085714Y-70657143D01*
X143028571Y-70714285D01*
X145200000Y-72828571D02*
X145200000Y-72257142D01*
X145542857Y-72942856D02*
X144342857Y-72542856D01*
X145542857Y-72142856D01*
X145542857Y-71114285D02*
X145542857Y-71800000D01*
X145542857Y-71457142D02*
X144342857Y-71457142D01*
X144514286Y-71571428D01*
X144628571Y-71685714D01*
X144685714Y-71800000D01*
X144742857Y-70085714D02*
X145542857Y-70085714D01*
X144285714Y-70371428D02*
X145142857Y-70657143D01*
X145142857Y-69914285D01*
X147600000Y-72828571D02*
X147600000Y-72257142D01*
X147942857Y-72942856D02*
X146742857Y-72542856D01*
X147942857Y-72142856D01*
X147942857Y-71114285D02*
X147942857Y-71800000D01*
X147942857Y-71457142D02*
X146742857Y-71457142D01*
X146914286Y-71571428D01*
X147028571Y-71685714D01*
X147085714Y-71800000D01*
X146742857Y-70028571D02*
X146742857Y-70600000D01*
X147314286Y-70657143D01*
X147257143Y-70600000D01*
X147200000Y-70485714D01*
X147200000Y-70200000D01*
X147257143Y-70085714D01*
X147314286Y-70028571D01*
X147428571Y-69971428D01*
X147714286Y-69971428D01*
X147828571Y-70028571D01*
X147885714Y-70085714D01*
X147942857Y-70200000D01*
X147942857Y-70485714D01*
X147885714Y-70600000D01*
X147828571Y-70657143D01*
X150942857Y-72714286D02*
X149742857Y-72714286D01*
X150600000Y-72314286D01*
X149742857Y-71914286D01*
X150942857Y-71914286D01*
X150600000Y-71400000D02*
X150600000Y-70828571D01*
X150942857Y-71514285D02*
X149742857Y-71114285D01*
X150942857Y-70714285D01*
X150942857Y-70314286D02*
X149742857Y-70314286D01*
X149742857Y-69857143D01*
X149800000Y-69742857D01*
X149857143Y-69685714D01*
X149971429Y-69628571D01*
X150142857Y-69628571D01*
X150257143Y-69685714D01*
X150314286Y-69742857D01*
X150371429Y-69857143D01*
X150371429Y-70314286D01*
X149536000Y-73000000D02*
X149536000Y-69400000D01*
X153142857Y-72199999D02*
X152571429Y-72599999D01*
X153142857Y-72885714D02*
X151942857Y-72885714D01*
X151942857Y-72428571D01*
X152000000Y-72314285D01*
X152057143Y-72257142D01*
X152171429Y-72199999D01*
X152342857Y-72199999D01*
X152457143Y-72257142D01*
X152514286Y-72314285D01*
X152571429Y-72428571D01*
X152571429Y-72885714D01*
X153142857Y-71685714D02*
X151942857Y-71685714D01*
X151942857Y-71399999D01*
X152000000Y-71228571D01*
X152114286Y-71114285D01*
X152228571Y-71057142D01*
X152457143Y-70999999D01*
X152628571Y-70999999D01*
X152857143Y-71057142D01*
X152971429Y-71114285D01*
X153085714Y-71228571D01*
X153142857Y-71399999D01*
X153142857Y-71685714D01*
X152342857Y-69971428D02*
X153142857Y-69971428D01*
X151885714Y-70257142D02*
X152742857Y-70542857D01*
X152742857Y-69799999D01*
X155742857Y-72199999D02*
X155171429Y-72599999D01*
X155742857Y-72885714D02*
X154542857Y-72885714D01*
X154542857Y-72428571D01*
X154600000Y-72314285D01*
X154657143Y-72257142D01*
X154771429Y-72199999D01*
X154942857Y-72199999D01*
X155057143Y-72257142D01*
X155114286Y-72314285D01*
X155171429Y-72428571D01*
X155171429Y-72885714D01*
X155742857Y-71685714D02*
X154542857Y-71685714D01*
X154542857Y-71399999D01*
X154600000Y-71228571D01*
X154714286Y-71114285D01*
X154828571Y-71057142D01*
X155057143Y-70999999D01*
X155228571Y-70999999D01*
X155457143Y-71057142D01*
X155571429Y-71114285D01*
X155685714Y-71228571D01*
X155742857Y-71399999D01*
X155742857Y-71685714D01*
X154542857Y-69914285D02*
X154542857Y-70485714D01*
X155114286Y-70542857D01*
X155057143Y-70485714D01*
X155000000Y-70371428D01*
X155000000Y-70085714D01*
X155057143Y-69971428D01*
X155114286Y-69914285D01*
X155228571Y-69857142D01*
X155514286Y-69857142D01*
X155628571Y-69914285D01*
X155685714Y-69971428D01*
X155742857Y-70085714D01*
X155742857Y-70371428D01*
X155685714Y-70485714D01*
X155628571Y-70542857D01*
X158342857Y-72199999D02*
X157771429Y-72599999D01*
X158342857Y-72885714D02*
X157142857Y-72885714D01*
X157142857Y-72428571D01*
X157200000Y-72314285D01*
X157257143Y-72257142D01*
X157371429Y-72199999D01*
X157542857Y-72199999D01*
X157657143Y-72257142D01*
X157714286Y-72314285D01*
X157771429Y-72428571D01*
X157771429Y-72885714D01*
X157714286Y-71685714D02*
X157714286Y-71285714D01*
X158342857Y-71114285D02*
X158342857Y-71685714D01*
X157142857Y-71685714D01*
X157142857Y-71114285D01*
X158342857Y-70600000D02*
X157142857Y-70600000D01*
X158342857Y-69914285D01*
X157142857Y-69914285D01*
X159800000Y-72314285D02*
X159742857Y-72428571D01*
X159742857Y-72600000D01*
X159800000Y-72771428D01*
X159914286Y-72885714D01*
X160028571Y-72942857D01*
X160257143Y-73000000D01*
X160428571Y-73000000D01*
X160657143Y-72942857D01*
X160771429Y-72885714D01*
X160885714Y-72771428D01*
X160942857Y-72600000D01*
X160942857Y-72485714D01*
X160885714Y-72314285D01*
X160828571Y-72257142D01*
X160428571Y-72257142D01*
X160428571Y-72485714D01*
X160942857Y-71742857D02*
X159742857Y-71742857D01*
X160942857Y-71057142D01*
X159742857Y-71057142D01*
X160942857Y-70485714D02*
X159742857Y-70485714D01*
X159742857Y-70199999D01*
X159800000Y-70028571D01*
X159914286Y-69914285D01*
X160028571Y-69857142D01*
X160257143Y-69799999D01*
X160428571Y-69799999D01*
X160657143Y-69857142D01*
X160771429Y-69914285D01*
X160885714Y-70028571D01*
X160942857Y-70199999D01*
X160942857Y-70485714D01*
X160942857Y-64485713D02*
X160371429Y-64885713D01*
X160942857Y-65171428D02*
X159742857Y-65171428D01*
X159742857Y-64714285D01*
X159800000Y-64599999D01*
X159857143Y-64542856D01*
X159971429Y-64485713D01*
X160142857Y-64485713D01*
X160257143Y-64542856D01*
X160314286Y-64599999D01*
X160371429Y-64714285D01*
X160371429Y-65171428D01*
X160314286Y-63971428D02*
X160314286Y-63571428D01*
X160942857Y-63399999D02*
X160942857Y-63971428D01*
X159742857Y-63971428D01*
X159742857Y-63399999D01*
X160314286Y-62485714D02*
X160314286Y-62885714D01*
X160942857Y-62885714D02*
X159742857Y-62885714D01*
X159742857Y-62314285D01*
X159536000Y-65457142D02*
X159536000Y-62142857D01*
X158485714Y-65114286D02*
X158542857Y-64942857D01*
X158542857Y-64657143D01*
X158485714Y-64542857D01*
X158428571Y-64485714D01*
X158314286Y-64428571D01*
X158200000Y-64428571D01*
X158085714Y-64485714D01*
X158028571Y-64542857D01*
X157971429Y-64657143D01*
X157914286Y-64885714D01*
X157857143Y-65000000D01*
X157800000Y-65057143D01*
X157685714Y-65114286D01*
X157571429Y-65114286D01*
X157457143Y-65057143D01*
X157400000Y-65000000D01*
X157342857Y-64885714D01*
X157342857Y-64600000D01*
X157400000Y-64428571D01*
X157342857Y-63342857D02*
X157342857Y-63914286D01*
X157914286Y-63971429D01*
X157857143Y-63914286D01*
X157800000Y-63800000D01*
X157800000Y-63514286D01*
X157857143Y-63400000D01*
X157914286Y-63342857D01*
X158028571Y-63285714D01*
X158314286Y-63285714D01*
X158428571Y-63342857D01*
X158485714Y-63400000D01*
X158542857Y-63514286D01*
X158542857Y-63800000D01*
X158485714Y-63914286D01*
X158428571Y-63971429D01*
X157136000Y-65342857D02*
X157136000Y-63057143D01*
X155314286Y-64685714D02*
X155371429Y-64514285D01*
X155428571Y-64457142D01*
X155542857Y-64399999D01*
X155714286Y-64399999D01*
X155828571Y-64457142D01*
X155885714Y-64514285D01*
X155942857Y-64628571D01*
X155942857Y-65085714D01*
X154742857Y-65085714D01*
X154742857Y-64685714D01*
X154800000Y-64571428D01*
X154857143Y-64514285D01*
X154971429Y-64457142D01*
X155085714Y-64457142D01*
X155200000Y-64514285D01*
X155257143Y-64571428D01*
X155314286Y-64685714D01*
X155314286Y-65085714D01*
X155600000Y-63942857D02*
X155600000Y-63371428D01*
X155942857Y-64057142D02*
X154742857Y-63657142D01*
X155942857Y-63257142D01*
X155885714Y-62914286D02*
X155942857Y-62742857D01*
X155942857Y-62457143D01*
X155885714Y-62342857D01*
X155828571Y-62285714D01*
X155714286Y-62228571D01*
X155600000Y-62228571D01*
X155485714Y-62285714D01*
X155428571Y-62342857D01*
X155371429Y-62457143D01*
X155314286Y-62685714D01*
X155257143Y-62800000D01*
X155200000Y-62857143D01*
X155085714Y-62914286D01*
X154971429Y-62914286D01*
X154857143Y-62857143D01*
X154800000Y-62800000D01*
X154742857Y-62685714D01*
X154742857Y-62400000D01*
X154800000Y-62228571D01*
X155942857Y-61714286D02*
X154742857Y-61714286D01*
X155828571Y-60457142D02*
X155885714Y-60514285D01*
X155942857Y-60685714D01*
X155942857Y-60800000D01*
X155885714Y-60971428D01*
X155771429Y-61085714D01*
X155657143Y-61142857D01*
X155428571Y-61200000D01*
X155257143Y-61200000D01*
X155028571Y-61142857D01*
X154914286Y-61085714D01*
X154800000Y-60971428D01*
X154742857Y-60800000D01*
X154742857Y-60685714D01*
X154800000Y-60514285D01*
X154857143Y-60457142D01*
X154536000Y-65371428D02*
X154536000Y-60228571D01*
X153342857Y-65000000D02*
X152142857Y-65000000D01*
X153000000Y-64600000D01*
X152142857Y-64200000D01*
X153342857Y-64200000D01*
X153342857Y-63628571D02*
X152142857Y-63628571D01*
X152142857Y-63171428D01*
X152200000Y-63057142D01*
X152257143Y-62999999D01*
X152371429Y-62942856D01*
X152542857Y-62942856D01*
X152657143Y-62999999D01*
X152714286Y-63057142D01*
X152771429Y-63171428D01*
X152771429Y-63628571D01*
X153342857Y-62428571D02*
X152142857Y-62428571D01*
X152142857Y-62142856D01*
X152200000Y-61971428D01*
X152314286Y-61857142D01*
X152428571Y-61799999D01*
X152657143Y-61742856D01*
X152828571Y-61742856D01*
X153057143Y-61799999D01*
X153171429Y-61857142D01*
X153285714Y-61971428D01*
X153342857Y-62142856D01*
X153342857Y-62428571D01*
X151936000Y-65285714D02*
X151936000Y-61514285D01*
X149542857Y-64885714D02*
X149542857Y-64657143D01*
X149600000Y-64542857D01*
X149714286Y-64428571D01*
X149942857Y-64371429D01*
X150342857Y-64371429D01*
X150571429Y-64428571D01*
X150685714Y-64542857D01*
X150742857Y-64657143D01*
X150742857Y-64885714D01*
X150685714Y-65000000D01*
X150571429Y-65114286D01*
X150342857Y-65171429D01*
X149942857Y-65171429D01*
X149714286Y-65114286D01*
X149600000Y-65000000D01*
X149542857Y-64885714D01*
X150685714Y-63914286D02*
X150742857Y-63742857D01*
X150742857Y-63457143D01*
X150685714Y-63342857D01*
X150628571Y-63285714D01*
X150514286Y-63228571D01*
X150400000Y-63228571D01*
X150285714Y-63285714D01*
X150228571Y-63342857D01*
X150171429Y-63457143D01*
X150114286Y-63685714D01*
X150057143Y-63800000D01*
X150000000Y-63857143D01*
X149885714Y-63914286D01*
X149771429Y-63914286D01*
X149657143Y-63857143D01*
X149600000Y-63800000D01*
X149542857Y-63685714D01*
X149542857Y-63400000D01*
X149600000Y-63228571D01*
X149336000Y-65400000D02*
X149336000Y-63000000D01*
X148028571Y-64314285D02*
X148085714Y-64371428D01*
X148142857Y-64542857D01*
X148142857Y-64657143D01*
X148085714Y-64828571D01*
X147971429Y-64942857D01*
X147857143Y-65000000D01*
X147628571Y-65057143D01*
X147457143Y-65057143D01*
X147228571Y-65000000D01*
X147114286Y-64942857D01*
X147000000Y-64828571D01*
X146942857Y-64657143D01*
X146942857Y-64542857D01*
X147000000Y-64371428D01*
X147057143Y-64314285D01*
X148142857Y-63800000D02*
X146942857Y-63800000D01*
X146736000Y-65285714D02*
X146736000Y-63514285D01*
X145742857Y-65028572D02*
X144542857Y-65028572D01*
X144542857Y-64228571D02*
X144542857Y-64000000D01*
X144600000Y-63885714D01*
X144714286Y-63771428D01*
X144942857Y-63714286D01*
X145342857Y-63714286D01*
X145571429Y-63771428D01*
X145685714Y-63885714D01*
X145742857Y-64000000D01*
X145742857Y-64228571D01*
X145685714Y-64342857D01*
X145571429Y-64457143D01*
X145342857Y-64514286D01*
X144942857Y-64514286D01*
X144714286Y-64457143D01*
X144600000Y-64342857D01*
X144542857Y-64228571D01*
X144336000Y-65314286D02*
X144336000Y-63485714D01*
X142514286Y-64657143D02*
X142571429Y-64485714D01*
X142628571Y-64428571D01*
X142742857Y-64371428D01*
X142914286Y-64371428D01*
X143028571Y-64428571D01*
X143085714Y-64485714D01*
X143142857Y-64600000D01*
X143142857Y-65057143D01*
X141942857Y-65057143D01*
X141942857Y-64657143D01*
X142000000Y-64542857D01*
X142057143Y-64485714D01*
X142171429Y-64428571D01*
X142285714Y-64428571D01*
X142400000Y-64485714D01*
X142457143Y-64542857D01*
X142514286Y-64657143D01*
X142514286Y-65057143D01*
X142514286Y-63857143D02*
X142514286Y-63457143D01*
X143142857Y-63285714D02*
X143142857Y-63857143D01*
X141942857Y-63857143D01*
X141942857Y-63285714D01*
X141736000Y-65342857D02*
X141736000Y-63057143D01*
X140485714Y-65114286D02*
X140542857Y-64942857D01*
X140542857Y-64657143D01*
X140485714Y-64542857D01*
X140428571Y-64485714D01*
X140314286Y-64428571D01*
X140200000Y-64428571D01*
X140085714Y-64485714D01*
X140028571Y-64542857D01*
X139971429Y-64657143D01*
X139914286Y-64885714D01*
X139857143Y-65000000D01*
X139800000Y-65057143D01*
X139685714Y-65114286D01*
X139571429Y-65114286D01*
X139457143Y-65057143D01*
X139400000Y-65000000D01*
X139342857Y-64885714D01*
X139342857Y-64600000D01*
X139400000Y-64428571D01*
X139742857Y-63400000D02*
X140542857Y-63400000D01*
X139285714Y-63685714D02*
X140142857Y-63971429D01*
X140142857Y-63228571D01*
X139136000Y-65342857D02*
X139136000Y-63057143D01*
X136742857Y-64628571D02*
X136742857Y-65200000D01*
X137314286Y-65257143D01*
X137257143Y-65200000D01*
X137200000Y-65085714D01*
X137200000Y-64800000D01*
X137257143Y-64685714D01*
X137314286Y-64628571D01*
X137428571Y-64571428D01*
X137714286Y-64571428D01*
X137828571Y-64628571D01*
X137885714Y-64685714D01*
X137942857Y-64800000D01*
X137942857Y-65085714D01*
X137885714Y-65200000D01*
X137828571Y-65257143D01*
X136742857Y-64228571D02*
X137942857Y-63828571D01*
X136742857Y-63428571D01*
X119400000Y-84400000D02*
X119400000Y-83200000D01*
X116800000Y-84400000D02*
X116800000Y-83200000D01*
X114200000Y-83200000D02*
X121000000Y-83200000D01*
X114200000Y-84400000D02*
X114200000Y-83200000D01*
X111600000Y-89400000D02*
X110400000Y-89400000D01*
X111600000Y-88000000D02*
X111600000Y-89400000D01*
X98342857Y-76028571D02*
X98342857Y-76600000D01*
X98914286Y-76657143D01*
X98857143Y-76600000D01*
X98800000Y-76485714D01*
X98800000Y-76200000D01*
X98857143Y-76085714D01*
X98914286Y-76028571D01*
X99028571Y-75971428D01*
X99314286Y-75971428D01*
X99428571Y-76028571D01*
X99485714Y-76085714D01*
X99542857Y-76200000D01*
X99542857Y-76485714D01*
X99485714Y-76600000D01*
X99428571Y-76657143D01*
X98342857Y-75628571D02*
X99542857Y-75228571D01*
X98342857Y-74828571D01*
X100942857Y-76485714D02*
X100942857Y-76257143D01*
X101000000Y-76142857D01*
X101114286Y-76028571D01*
X101342857Y-75971429D01*
X101742857Y-75971429D01*
X101971429Y-76028571D01*
X102085714Y-76142857D01*
X102142857Y-76257143D01*
X102142857Y-76485714D01*
X102085714Y-76600000D01*
X101971429Y-76714286D01*
X101742857Y-76771429D01*
X101342857Y-76771429D01*
X101114286Y-76714286D01*
X101000000Y-76600000D01*
X100942857Y-76485714D01*
X101057143Y-75514286D02*
X101000000Y-75457143D01*
X100942857Y-75342857D01*
X100942857Y-75057143D01*
X101000000Y-74942857D01*
X101057143Y-74885714D01*
X101171429Y-74828571D01*
X101285714Y-74828571D01*
X101457143Y-74885714D01*
X102142857Y-75571428D01*
X102142857Y-74828571D01*
X104742857Y-76685714D02*
X103542857Y-76685714D01*
X103542857Y-76228571D01*
X103600000Y-76114285D01*
X103657143Y-76057142D01*
X103771429Y-75999999D01*
X103942857Y-75999999D01*
X104057143Y-76057142D01*
X104114286Y-76114285D01*
X104171429Y-76228571D01*
X104171429Y-76685714D01*
X104114286Y-75085714D02*
X104171429Y-74914285D01*
X104228571Y-74857142D01*
X104342857Y-74799999D01*
X104514286Y-74799999D01*
X104628571Y-74857142D01*
X104685714Y-74914285D01*
X104742857Y-75028571D01*
X104742857Y-75485714D01*
X103542857Y-75485714D01*
X103542857Y-75085714D01*
X103600000Y-74971428D01*
X103657143Y-74914285D01*
X103771429Y-74857142D01*
X103885714Y-74857142D01*
X104000000Y-74914285D01*
X104057143Y-74971428D01*
X104114286Y-75085714D01*
X104114286Y-75485714D01*
X103542857Y-73714285D02*
X103542857Y-74285714D01*
X104114286Y-74342857D01*
X104057143Y-74285714D01*
X104000000Y-74171428D01*
X104000000Y-73885714D01*
X104057143Y-73771428D01*
X104114286Y-73714285D01*
X104228571Y-73657142D01*
X104514286Y-73657142D01*
X104628571Y-73714285D01*
X104685714Y-73771428D01*
X104742857Y-73885714D01*
X104742857Y-74171428D01*
X104685714Y-74285714D01*
X104628571Y-74342857D01*
X106714286Y-76285714D02*
X106714286Y-76685714D01*
X107342857Y-76685714D02*
X106142857Y-76685714D01*
X106142857Y-76114285D01*
X107000000Y-75714286D02*
X107000000Y-75142857D01*
X107342857Y-75828571D02*
X106142857Y-75428571D01*
X107342857Y-75028571D01*
X107342857Y-74000000D02*
X107342857Y-74685715D01*
X107342857Y-74342857D02*
X106142857Y-74342857D01*
X106314286Y-74457143D01*
X106428571Y-74571429D01*
X106485714Y-74685715D01*
X106142857Y-72914286D02*
X106142857Y-73485715D01*
X106714286Y-73542858D01*
X106657143Y-73485715D01*
X106600000Y-73371429D01*
X106600000Y-73085715D01*
X106657143Y-72971429D01*
X106714286Y-72914286D01*
X106828571Y-72857143D01*
X107114286Y-72857143D01*
X107228571Y-72914286D01*
X107285714Y-72971429D01*
X107342857Y-73085715D01*
X107342857Y-73371429D01*
X107285714Y-73485715D01*
X107228571Y-73542858D01*
X109114286Y-76285714D02*
X109114286Y-76685714D01*
X109742857Y-76685714D02*
X108542857Y-76685714D01*
X108542857Y-76114285D01*
X109400000Y-75714286D02*
X109400000Y-75142857D01*
X109742857Y-75828571D02*
X108542857Y-75428571D01*
X109742857Y-75028571D01*
X109742857Y-74000000D02*
X109742857Y-74685715D01*
X109742857Y-74342857D02*
X108542857Y-74342857D01*
X108714286Y-74457143D01*
X108828571Y-74571429D01*
X108885714Y-74685715D01*
X108942857Y-72971429D02*
X109742857Y-72971429D01*
X108485714Y-73257143D02*
X109342857Y-73542858D01*
X109342857Y-72800000D01*
X112428571Y-75942856D02*
X112485714Y-75999999D01*
X112542857Y-76171428D01*
X112542857Y-76285714D01*
X112485714Y-76457142D01*
X112371429Y-76571428D01*
X112257143Y-76628571D01*
X112028571Y-76685714D01*
X111857143Y-76685714D01*
X111628571Y-76628571D01*
X111514286Y-76571428D01*
X111400000Y-76457142D01*
X111342857Y-76285714D01*
X111342857Y-76171428D01*
X111400000Y-75999999D01*
X111457143Y-75942856D01*
X112200000Y-75485714D02*
X112200000Y-74914285D01*
X112542857Y-75599999D02*
X111342857Y-75199999D01*
X112542857Y-74799999D01*
X112485714Y-74457143D02*
X112542857Y-74285714D01*
X112542857Y-74000000D01*
X112485714Y-73885714D01*
X112428571Y-73828571D01*
X112314286Y-73771428D01*
X112200000Y-73771428D01*
X112085714Y-73828571D01*
X112028571Y-73885714D01*
X111971429Y-74000000D01*
X111914286Y-74228571D01*
X111857143Y-74342857D01*
X111800000Y-74400000D01*
X111685714Y-74457143D01*
X111571429Y-74457143D01*
X111457143Y-74400000D01*
X111400000Y-74342857D01*
X111342857Y-74228571D01*
X111342857Y-73942857D01*
X111400000Y-73771428D01*
X112542857Y-73257143D02*
X111342857Y-73257143D01*
X112200000Y-72857143D01*
X111342857Y-72457143D01*
X112542857Y-72457143D01*
X112200000Y-71942857D02*
X112200000Y-71371428D01*
X112542857Y-72057142D02*
X111342857Y-71657142D01*
X112542857Y-71257142D01*
X112542857Y-70857143D02*
X111342857Y-70857143D01*
X112542857Y-70171428D01*
X111342857Y-70171428D01*
X111136000Y-76914285D02*
X111136000Y-69885714D01*
X115028571Y-75942856D02*
X115085714Y-75999999D01*
X115142857Y-76171428D01*
X115142857Y-76285714D01*
X115085714Y-76457142D01*
X114971429Y-76571428D01*
X114857143Y-76628571D01*
X114628571Y-76685714D01*
X114457143Y-76685714D01*
X114228571Y-76628571D01*
X114114286Y-76571428D01*
X114000000Y-76457142D01*
X113942857Y-76285714D01*
X113942857Y-76171428D01*
X114000000Y-75999999D01*
X114057143Y-75942856D01*
X114800000Y-75485714D02*
X114800000Y-74914285D01*
X115142857Y-75599999D02*
X113942857Y-75199999D01*
X115142857Y-74799999D01*
X115085714Y-74457143D02*
X115142857Y-74285714D01*
X115142857Y-74000000D01*
X115085714Y-73885714D01*
X115028571Y-73828571D01*
X114914286Y-73771428D01*
X114800000Y-73771428D01*
X114685714Y-73828571D01*
X114628571Y-73885714D01*
X114571429Y-74000000D01*
X114514286Y-74228571D01*
X114457143Y-74342857D01*
X114400000Y-74400000D01*
X114285714Y-74457143D01*
X114171429Y-74457143D01*
X114057143Y-74400000D01*
X114000000Y-74342857D01*
X113942857Y-74228571D01*
X113942857Y-73942857D01*
X114000000Y-73771428D01*
X114514286Y-72857143D02*
X114571429Y-72685714D01*
X114628571Y-72628571D01*
X114742857Y-72571428D01*
X114914286Y-72571428D01*
X115028571Y-72628571D01*
X115085714Y-72685714D01*
X115142857Y-72800000D01*
X115142857Y-73257143D01*
X113942857Y-73257143D01*
X113942857Y-72857143D01*
X114000000Y-72742857D01*
X114057143Y-72685714D01*
X114171429Y-72628571D01*
X114285714Y-72628571D01*
X114400000Y-72685714D01*
X114457143Y-72742857D01*
X114514286Y-72857143D01*
X114514286Y-73257143D01*
X115142857Y-72057143D02*
X113942857Y-72057143D01*
X115142857Y-71371428D01*
X113942857Y-71371428D01*
X115142857Y-70800000D02*
X113942857Y-70800000D01*
X115142857Y-70114285D02*
X114457143Y-70628571D01*
X113942857Y-70114285D02*
X114628571Y-70800000D01*
X113736000Y-76914285D02*
X113736000Y-69885714D01*
X117542857Y-76800000D02*
X116342857Y-76800000D01*
X116914286Y-76800000D02*
X116914286Y-76114285D01*
X117542857Y-76114285D02*
X116342857Y-76114285D01*
X117200000Y-75600000D02*
X117200000Y-75028571D01*
X117542857Y-75714285D02*
X116342857Y-75314285D01*
X117542857Y-74914285D01*
X117542857Y-73942857D02*
X117542857Y-74514286D01*
X116342857Y-74514286D01*
X116342857Y-73714285D02*
X116342857Y-73028571D01*
X117542857Y-73371428D02*
X116342857Y-73371428D01*
X119942857Y-76685714D02*
X118742857Y-76685714D01*
X118742857Y-76228571D01*
X118800000Y-76114285D01*
X118857143Y-76057142D01*
X118971429Y-75999999D01*
X119142857Y-75999999D01*
X119257143Y-76057142D01*
X119314286Y-76114285D01*
X119371429Y-76228571D01*
X119371429Y-76685714D01*
X119314286Y-75085714D02*
X119371429Y-74914285D01*
X119428571Y-74857142D01*
X119542857Y-74799999D01*
X119714286Y-74799999D01*
X119828571Y-74857142D01*
X119885714Y-74914285D01*
X119942857Y-75028571D01*
X119942857Y-75485714D01*
X118742857Y-75485714D01*
X118742857Y-75085714D01*
X118800000Y-74971428D01*
X118857143Y-74914285D01*
X118971429Y-74857142D01*
X119085714Y-74857142D01*
X119200000Y-74914285D01*
X119257143Y-74971428D01*
X119314286Y-75085714D01*
X119314286Y-75485714D01*
X118742857Y-73771428D02*
X118742857Y-73999999D01*
X118800000Y-74114285D01*
X118857143Y-74171428D01*
X119028571Y-74285714D01*
X119257143Y-74342857D01*
X119714286Y-74342857D01*
X119828571Y-74285714D01*
X119885714Y-74228571D01*
X119942857Y-74114285D01*
X119942857Y-73885714D01*
X119885714Y-73771428D01*
X119828571Y-73714285D01*
X119714286Y-73657142D01*
X119428571Y-73657142D01*
X119314286Y-73714285D01*
X119257143Y-73771428D01*
X119200000Y-73885714D01*
X119200000Y-74114285D01*
X119257143Y-74228571D01*
X119314286Y-74285714D01*
X119428571Y-74342857D01*
X121514286Y-76657143D02*
X121514286Y-76257143D01*
X122142857Y-76085714D02*
X122142857Y-76657143D01*
X120942857Y-76657143D01*
X120942857Y-76085714D01*
X122142857Y-75571429D02*
X120942857Y-75571429D01*
X121800000Y-75171429D01*
X120942857Y-74771429D01*
X122142857Y-74771429D01*
X122142857Y-74200000D02*
X120942857Y-74200000D01*
X121800000Y-73800000D01*
X120942857Y-73400000D01*
X122142857Y-73400000D01*
X120942857Y-72828571D02*
X121914286Y-72828571D01*
X122028571Y-72771428D01*
X122085714Y-72714285D01*
X122142857Y-72599999D01*
X122142857Y-72371428D01*
X122085714Y-72257142D01*
X122028571Y-72199999D01*
X121914286Y-72142856D01*
X120942857Y-72142856D01*
X122257143Y-71857142D02*
X122257143Y-70942856D01*
X122142857Y-70028570D02*
X122142857Y-70714285D01*
X122142857Y-70371427D02*
X120942857Y-70371427D01*
X121114286Y-70485713D01*
X121228571Y-70599999D01*
X121285714Y-70714285D01*
X122142857Y-68885713D02*
X122142857Y-69571428D01*
X122142857Y-69228570D02*
X120942857Y-69228570D01*
X121114286Y-69342856D01*
X121228571Y-69457142D01*
X121285714Y-69571428D01*
X104742857Y-84285714D02*
X103542857Y-84285714D01*
X103542857Y-83828571D01*
X103600000Y-83714285D01*
X103657143Y-83657142D01*
X103771429Y-83599999D01*
X103942857Y-83599999D01*
X104057143Y-83657142D01*
X104114286Y-83714285D01*
X104171429Y-83828571D01*
X104171429Y-84285714D01*
X104114286Y-82685714D02*
X104171429Y-82514285D01*
X104228571Y-82457142D01*
X104342857Y-82399999D01*
X104514286Y-82399999D01*
X104628571Y-82457142D01*
X104685714Y-82514285D01*
X104742857Y-82628571D01*
X104742857Y-83085714D01*
X103542857Y-83085714D01*
X103542857Y-82685714D01*
X103600000Y-82571428D01*
X103657143Y-82514285D01*
X103771429Y-82457142D01*
X103885714Y-82457142D01*
X104000000Y-82514285D01*
X104057143Y-82571428D01*
X104114286Y-82685714D01*
X104114286Y-83085714D01*
X103657143Y-81942857D02*
X103600000Y-81885714D01*
X103542857Y-81771428D01*
X103542857Y-81485714D01*
X103600000Y-81371428D01*
X103657143Y-81314285D01*
X103771429Y-81257142D01*
X103885714Y-81257142D01*
X104057143Y-81314285D01*
X104742857Y-81999999D01*
X104742857Y-81257142D01*
X107342857Y-84285714D02*
X106142857Y-84285714D01*
X106142857Y-83828571D01*
X106200000Y-83714285D01*
X106257143Y-83657142D01*
X106371429Y-83599999D01*
X106542857Y-83599999D01*
X106657143Y-83657142D01*
X106714286Y-83714285D01*
X106771429Y-83828571D01*
X106771429Y-84285714D01*
X106714286Y-82685714D02*
X106771429Y-82514285D01*
X106828571Y-82457142D01*
X106942857Y-82399999D01*
X107114286Y-82399999D01*
X107228571Y-82457142D01*
X107285714Y-82514285D01*
X107342857Y-82628571D01*
X107342857Y-83085714D01*
X106142857Y-83085714D01*
X106142857Y-82685714D01*
X106200000Y-82571428D01*
X106257143Y-82514285D01*
X106371429Y-82457142D01*
X106485714Y-82457142D01*
X106600000Y-82514285D01*
X106657143Y-82571428D01*
X106714286Y-82685714D01*
X106714286Y-83085714D01*
X106142857Y-81999999D02*
X106142857Y-81257142D01*
X106600000Y-81657142D01*
X106600000Y-81485714D01*
X106657143Y-81371428D01*
X106714286Y-81314285D01*
X106828571Y-81257142D01*
X107114286Y-81257142D01*
X107228571Y-81314285D01*
X107285714Y-81371428D01*
X107342857Y-81485714D01*
X107342857Y-81828571D01*
X107285714Y-81942857D01*
X107228571Y-81999999D01*
X109942857Y-84285714D02*
X108742857Y-84285714D01*
X108742857Y-83828571D01*
X108800000Y-83714285D01*
X108857143Y-83657142D01*
X108971429Y-83599999D01*
X109142857Y-83599999D01*
X109257143Y-83657142D01*
X109314286Y-83714285D01*
X109371429Y-83828571D01*
X109371429Y-84285714D01*
X109314286Y-82685714D02*
X109371429Y-82514285D01*
X109428571Y-82457142D01*
X109542857Y-82399999D01*
X109714286Y-82399999D01*
X109828571Y-82457142D01*
X109885714Y-82514285D01*
X109942857Y-82628571D01*
X109942857Y-83085714D01*
X108742857Y-83085714D01*
X108742857Y-82685714D01*
X108800000Y-82571428D01*
X108857143Y-82514285D01*
X108971429Y-82457142D01*
X109085714Y-82457142D01*
X109200000Y-82514285D01*
X109257143Y-82571428D01*
X109314286Y-82685714D01*
X109314286Y-83085714D01*
X109142857Y-81371428D02*
X109942857Y-81371428D01*
X108685714Y-81657142D02*
X109542857Y-81942857D01*
X109542857Y-81199999D01*
X105371429Y-90028571D02*
X105314286Y-90085714D01*
X105142857Y-90142857D01*
X105028571Y-90142857D01*
X104857143Y-90085714D01*
X104742857Y-89971429D01*
X104685714Y-89857143D01*
X104628571Y-89628571D01*
X104628571Y-89457143D01*
X104685714Y-89228571D01*
X104742857Y-89114286D01*
X104857143Y-89000000D01*
X105028571Y-88942857D01*
X105142857Y-88942857D01*
X105314286Y-89000000D01*
X105371429Y-89057143D01*
X105828571Y-89800000D02*
X106400000Y-89800000D01*
X105714286Y-90142857D02*
X106114286Y-88942857D01*
X106514286Y-90142857D01*
X106857142Y-90085714D02*
X107028571Y-90142857D01*
X107314285Y-90142857D01*
X107428571Y-90085714D01*
X107485714Y-90028571D01*
X107542857Y-89914286D01*
X107542857Y-89800000D01*
X107485714Y-89685714D01*
X107428571Y-89628571D01*
X107314285Y-89571429D01*
X107085714Y-89514286D01*
X106971428Y-89457143D01*
X106914285Y-89400000D01*
X106857142Y-89285714D01*
X106857142Y-89171429D01*
X106914285Y-89057143D01*
X106971428Y-89000000D01*
X107085714Y-88942857D01*
X107371428Y-88942857D01*
X107542857Y-89000000D01*
X108057142Y-90142857D02*
X108057142Y-88942857D01*
X108628571Y-90142857D02*
X108628571Y-88942857D01*
X109314286Y-90142857D01*
X109314286Y-88942857D01*
X121400000Y-83714285D02*
X121342857Y-83828571D01*
X121342857Y-84000000D01*
X121400000Y-84171428D01*
X121514286Y-84285714D01*
X121628571Y-84342857D01*
X121857143Y-84400000D01*
X122028571Y-84400000D01*
X122257143Y-84342857D01*
X122371429Y-84285714D01*
X122485714Y-84171428D01*
X122542857Y-84000000D01*
X122542857Y-83885714D01*
X122485714Y-83714285D01*
X122428571Y-83657142D01*
X122028571Y-83657142D01*
X122028571Y-83885714D01*
X122542857Y-83142857D02*
X121342857Y-83142857D01*
X122542857Y-82457142D01*
X121342857Y-82457142D01*
X122542857Y-81885714D02*
X121342857Y-81885714D01*
X121342857Y-81599999D01*
X121400000Y-81428571D01*
X121514286Y-81314285D01*
X121628571Y-81257142D01*
X121857143Y-81199999D01*
X122028571Y-81199999D01*
X122257143Y-81257142D01*
X122371429Y-81314285D01*
X122485714Y-81428571D01*
X122542857Y-81599999D01*
X122542857Y-81885714D01*
X127085715Y-83600000D02*
X126971429Y-83542857D01*
X126800000Y-83542857D01*
X126628572Y-83600000D01*
X126514286Y-83714286D01*
X126457143Y-83828571D01*
X126400000Y-84057143D01*
X126400000Y-84228571D01*
X126457143Y-84457143D01*
X126514286Y-84571429D01*
X126628572Y-84685714D01*
X126800000Y-84742857D01*
X126914286Y-84742857D01*
X127085715Y-84685714D01*
X127142858Y-84628571D01*
X127142858Y-84228571D01*
X126914286Y-84228571D01*
X127657143Y-84742857D02*
X127657143Y-83542857D01*
X128342858Y-84742857D01*
X128342858Y-83542857D01*
X128914286Y-84742857D02*
X128914286Y-83542857D01*
X129200001Y-83542857D01*
X129371429Y-83600000D01*
X129485715Y-83714286D01*
X129542858Y-83828571D01*
X129600001Y-84057143D01*
X129600001Y-84228571D01*
X129542858Y-84457143D01*
X129485715Y-84571429D01*
X129371429Y-84685714D01*
X129200001Y-84742857D01*
X128914286Y-84742857D01*
X159542857Y-59200000D02*
X159542857Y-58514286D01*
X160742857Y-58857143D02*
X159542857Y-58857143D01*
X160742857Y-58114286D02*
X159542857Y-58114286D01*
X160400000Y-57714286D01*
X159542857Y-57314286D01*
X160742857Y-57314286D01*
X160685714Y-56800000D02*
X160742857Y-56628571D01*
X160742857Y-56342857D01*
X160685714Y-56228571D01*
X160628571Y-56171428D01*
X160514286Y-56114285D01*
X160400000Y-56114285D01*
X160285714Y-56171428D01*
X160228571Y-56228571D01*
X160171429Y-56342857D01*
X160114286Y-56571428D01*
X160057143Y-56685714D01*
X160000000Y-56742857D01*
X159885714Y-56800000D01*
X159771429Y-56800000D01*
X159657143Y-56742857D01*
X159600000Y-56685714D01*
X159542857Y-56571428D01*
X159542857Y-56285714D01*
X159600000Y-56114285D01*
X156942857Y-58428571D02*
X156942857Y-57742857D01*
X158142857Y-58085714D02*
X156942857Y-58085714D01*
X158142857Y-57342857D02*
X156942857Y-57342857D01*
X156942857Y-57057142D01*
X157000000Y-56885714D01*
X157114286Y-56771428D01*
X157228571Y-56714285D01*
X157457143Y-56657142D01*
X157628571Y-56657142D01*
X157857143Y-56714285D01*
X157971429Y-56771428D01*
X158085714Y-56885714D01*
X158142857Y-57057142D01*
X158142857Y-57342857D01*
X158142857Y-56142857D02*
X156942857Y-56142857D01*
X154542857Y-59171428D02*
X154542857Y-58485714D01*
X155742857Y-58828571D02*
X154542857Y-58828571D01*
X155742857Y-58085714D02*
X154542857Y-58085714D01*
X154542857Y-57799999D01*
X154600000Y-57628571D01*
X154714286Y-57514285D01*
X154828571Y-57457142D01*
X155057143Y-57399999D01*
X155228571Y-57399999D01*
X155457143Y-57457142D01*
X155571429Y-57514285D01*
X155685714Y-57628571D01*
X155742857Y-57799999D01*
X155742857Y-58085714D01*
X154542857Y-56657142D02*
X154542857Y-56428571D01*
X154600000Y-56314285D01*
X154714286Y-56199999D01*
X154942857Y-56142857D01*
X155342857Y-56142857D01*
X155571429Y-56199999D01*
X155685714Y-56314285D01*
X155742857Y-56428571D01*
X155742857Y-56657142D01*
X155685714Y-56771428D01*
X155571429Y-56885714D01*
X155342857Y-56942857D01*
X154942857Y-56942857D01*
X154714286Y-56885714D01*
X154600000Y-56771428D01*
X154542857Y-56657142D01*
X151942857Y-59142857D02*
X151942857Y-58457143D01*
X153142857Y-58800000D02*
X151942857Y-58800000D01*
X153028571Y-57371428D02*
X153085714Y-57428571D01*
X153142857Y-57600000D01*
X153142857Y-57714286D01*
X153085714Y-57885714D01*
X152971429Y-58000000D01*
X152857143Y-58057143D01*
X152628571Y-58114286D01*
X152457143Y-58114286D01*
X152228571Y-58057143D01*
X152114286Y-58000000D01*
X152000000Y-57885714D01*
X151942857Y-57714286D01*
X151942857Y-57600000D01*
X152000000Y-57428571D01*
X152057143Y-57371428D01*
X153142857Y-56857143D02*
X151942857Y-56857143D01*
X153142857Y-56171428D02*
X152457143Y-56685714D01*
X151942857Y-56171428D02*
X152628571Y-56857143D01*
X149400000Y-58514285D02*
X149342857Y-58628571D01*
X149342857Y-58800000D01*
X149400000Y-58971428D01*
X149514286Y-59085714D01*
X149628571Y-59142857D01*
X149857143Y-59200000D01*
X150028571Y-59200000D01*
X150257143Y-59142857D01*
X150371429Y-59085714D01*
X150485714Y-58971428D01*
X150542857Y-58800000D01*
X150542857Y-58685714D01*
X150485714Y-58514285D01*
X150428571Y-58457142D01*
X150028571Y-58457142D01*
X150028571Y-58685714D01*
X150542857Y-57942857D02*
X149342857Y-57942857D01*
X150542857Y-57257142D01*
X149342857Y-57257142D01*
X150542857Y-56685714D02*
X149342857Y-56685714D01*
X149342857Y-56399999D01*
X149400000Y-56228571D01*
X149514286Y-56114285D01*
X149628571Y-56057142D01*
X149857143Y-55999999D01*
X150028571Y-55999999D01*
X150257143Y-56057142D01*
X150371429Y-56114285D01*
X150485714Y-56228571D01*
X150542857Y-56399999D01*
X150542857Y-56685714D01*
X146942857Y-58885713D02*
X146942857Y-58142856D01*
X147400000Y-58542856D01*
X147400000Y-58371428D01*
X147457143Y-58257142D01*
X147514286Y-58199999D01*
X147628571Y-58142856D01*
X147914286Y-58142856D01*
X148028571Y-58199999D01*
X148085714Y-58257142D01*
X148142857Y-58371428D01*
X148142857Y-58714285D01*
X148085714Y-58828571D01*
X148028571Y-58885713D01*
X146942857Y-57799999D02*
X148142857Y-57399999D01*
X146942857Y-56999999D01*
X146942857Y-56714285D02*
X146942857Y-55971428D01*
X147400000Y-56371428D01*
X147400000Y-56200000D01*
X147457143Y-56085714D01*
X147514286Y-56028571D01*
X147628571Y-55971428D01*
X147914286Y-55971428D01*
X148028571Y-56028571D01*
X148085714Y-56085714D01*
X148142857Y-56200000D01*
X148142857Y-56542857D01*
X148085714Y-56657143D01*
X148028571Y-56714285D01*
X91600000Y-55657143D02*
X91600000Y-55085714D01*
X91942857Y-55771428D02*
X90742857Y-55371428D01*
X91942857Y-54971428D01*
X90742857Y-54571429D02*
X91714286Y-54571429D01*
X91828571Y-54514286D01*
X91885714Y-54457143D01*
X91942857Y-54342857D01*
X91942857Y-54114286D01*
X91885714Y-54000000D01*
X91828571Y-53942857D01*
X91714286Y-53885714D01*
X90742857Y-53885714D01*
X90742857Y-53428571D02*
X91942857Y-52628571D01*
X90742857Y-52628571D02*
X91942857Y-53428571D01*
X90742857Y-51657143D02*
X90742857Y-51885714D01*
X90800000Y-52000000D01*
X90857143Y-52057143D01*
X91028571Y-52171429D01*
X91257143Y-52228572D01*
X91714286Y-52228572D01*
X91828571Y-52171429D01*
X91885714Y-52114286D01*
X91942857Y-52000000D01*
X91942857Y-51771429D01*
X91885714Y-51657143D01*
X91828571Y-51600000D01*
X91714286Y-51542857D01*
X91428571Y-51542857D01*
X91314286Y-51600000D01*
X91257143Y-51657143D01*
X91200000Y-51771429D01*
X91200000Y-52000000D01*
X91257143Y-52114286D01*
X91314286Y-52171429D01*
X91428571Y-52228572D01*
X84000000Y-55857143D02*
X84000000Y-55285714D01*
X84342857Y-55971428D02*
X83142857Y-55571428D01*
X84342857Y-55171428D01*
X83142857Y-54771429D02*
X84114286Y-54771429D01*
X84228571Y-54714286D01*
X84285714Y-54657143D01*
X84342857Y-54542857D01*
X84342857Y-54314286D01*
X84285714Y-54200000D01*
X84228571Y-54142857D01*
X84114286Y-54085714D01*
X83142857Y-54085714D01*
X83142857Y-53628571D02*
X84342857Y-52828571D01*
X83142857Y-52828571D02*
X84342857Y-53628571D01*
X83142857Y-51800000D02*
X83142857Y-52371429D01*
X83714286Y-52428572D01*
X83657143Y-52371429D01*
X83600000Y-52257143D01*
X83600000Y-51971429D01*
X83657143Y-51857143D01*
X83714286Y-51800000D01*
X83828571Y-51742857D01*
X84114286Y-51742857D01*
X84228571Y-51800000D01*
X84285714Y-51857143D01*
X84342857Y-51971429D01*
X84342857Y-52257143D01*
X84285714Y-52371429D01*
X84228571Y-52428572D01*
X81542857Y-56485714D02*
X80342857Y-56485714D01*
X80342857Y-56199999D01*
X80400000Y-56028571D01*
X80514286Y-55914285D01*
X80628571Y-55857142D01*
X80857143Y-55799999D01*
X81028571Y-55799999D01*
X81257143Y-55857142D01*
X81371429Y-55914285D01*
X81485714Y-56028571D01*
X81542857Y-56199999D01*
X81542857Y-56485714D01*
X80342857Y-54714285D02*
X80342857Y-55285714D01*
X80914286Y-55342857D01*
X80857143Y-55285714D01*
X80800000Y-55171428D01*
X80800000Y-54885714D01*
X80857143Y-54771428D01*
X80914286Y-54714285D01*
X81028571Y-54657142D01*
X81314286Y-54657142D01*
X81428571Y-54714285D01*
X81485714Y-54771428D01*
X81542857Y-54885714D01*
X81542857Y-55171428D01*
X81485714Y-55285714D01*
X81428571Y-55342857D01*
X78942857Y-56485714D02*
X77742857Y-56485714D01*
X77742857Y-56199999D01*
X77800000Y-56028571D01*
X77914286Y-55914285D01*
X78028571Y-55857142D01*
X78257143Y-55799999D01*
X78428571Y-55799999D01*
X78657143Y-55857142D01*
X78771429Y-55914285D01*
X78885714Y-56028571D01*
X78942857Y-56199999D01*
X78942857Y-56485714D01*
X77742857Y-54771428D02*
X77742857Y-54999999D01*
X77800000Y-55114285D01*
X77857143Y-55171428D01*
X78028571Y-55285714D01*
X78257143Y-55342857D01*
X78714286Y-55342857D01*
X78828571Y-55285714D01*
X78885714Y-55228571D01*
X78942857Y-55114285D01*
X78942857Y-54885714D01*
X78885714Y-54771428D01*
X78828571Y-54714285D01*
X78714286Y-54657142D01*
X78428571Y-54657142D01*
X78314286Y-54714285D01*
X78257143Y-54771428D01*
X78200000Y-54885714D01*
X78200000Y-55114285D01*
X78257143Y-55228571D01*
X78314286Y-55285714D01*
X78428571Y-55342857D01*
X76542857Y-56485714D02*
X75342857Y-56485714D01*
X75342857Y-56199999D01*
X75400000Y-56028571D01*
X75514286Y-55914285D01*
X75628571Y-55857142D01*
X75857143Y-55799999D01*
X76028571Y-55799999D01*
X76257143Y-55857142D01*
X76371429Y-55914285D01*
X76485714Y-56028571D01*
X76542857Y-56199999D01*
X76542857Y-56485714D01*
X75342857Y-55399999D02*
X75342857Y-54599999D01*
X76542857Y-55114285D01*
X70342857Y-55028571D02*
X70342857Y-55600000D01*
X70914286Y-55657143D01*
X70857143Y-55600000D01*
X70800000Y-55485714D01*
X70800000Y-55200000D01*
X70857143Y-55085714D01*
X70914286Y-55028571D01*
X71028571Y-54971428D01*
X71314286Y-54971428D01*
X71428571Y-55028571D01*
X71485714Y-55085714D01*
X71542857Y-55200000D01*
X71542857Y-55485714D01*
X71485714Y-55600000D01*
X71428571Y-55657143D01*
X70342857Y-54628571D02*
X71542857Y-54228571D01*
X70342857Y-53828571D01*
X67200000Y-55857143D02*
X67200000Y-55285714D01*
X67542857Y-55971428D02*
X66342857Y-55571428D01*
X67542857Y-55171428D01*
X67542857Y-54142857D02*
X67542857Y-54828572D01*
X67542857Y-54485714D02*
X66342857Y-54485714D01*
X66514286Y-54600000D01*
X66628571Y-54714286D01*
X66685714Y-54828572D01*
X64800000Y-55857143D02*
X64800000Y-55285714D01*
X65142857Y-55971428D02*
X63942857Y-55571428D01*
X65142857Y-55171428D01*
X64057143Y-54828572D02*
X64000000Y-54771429D01*
X63942857Y-54657143D01*
X63942857Y-54371429D01*
X64000000Y-54257143D01*
X64057143Y-54200000D01*
X64171429Y-54142857D01*
X64285714Y-54142857D01*
X64457143Y-54200000D01*
X65142857Y-54885714D01*
X65142857Y-54142857D01*
X62400000Y-55857143D02*
X62400000Y-55285714D01*
X62742857Y-55971428D02*
X61542857Y-55571428D01*
X62742857Y-55171428D01*
X61542857Y-54542857D02*
X61542857Y-54428572D01*
X61600000Y-54314286D01*
X61657143Y-54257143D01*
X61771429Y-54200000D01*
X62000000Y-54142857D01*
X62285714Y-54142857D01*
X62514286Y-54200000D01*
X62628571Y-54257143D01*
X62685714Y-54314286D01*
X62742857Y-54428572D01*
X62742857Y-54542857D01*
X62685714Y-54657143D01*
X62628571Y-54714286D01*
X62514286Y-54771429D01*
X62285714Y-54828572D01*
X62000000Y-54828572D01*
X61771429Y-54771429D01*
X61657143Y-54714286D01*
X61600000Y-54657143D01*
X61542857Y-54542857D01*
X60542857Y-56514285D02*
X59971429Y-56914285D01*
X60542857Y-57200000D02*
X59342857Y-57200000D01*
X59342857Y-56742857D01*
X59400000Y-56628571D01*
X59457143Y-56571428D01*
X59571429Y-56514285D01*
X59742857Y-56514285D01*
X59857143Y-56571428D01*
X59914286Y-56628571D01*
X59971429Y-56742857D01*
X59971429Y-57200000D01*
X60200000Y-56057143D02*
X60200000Y-55485714D01*
X60542857Y-56171428D02*
X59342857Y-55771428D01*
X60542857Y-55371428D01*
X60485714Y-55028572D02*
X60542857Y-54857143D01*
X60542857Y-54571429D01*
X60485714Y-54457143D01*
X60428571Y-54400000D01*
X60314286Y-54342857D01*
X60200000Y-54342857D01*
X60085714Y-54400000D01*
X60028571Y-54457143D01*
X59971429Y-54571429D01*
X59914286Y-54800000D01*
X59857143Y-54914286D01*
X59800000Y-54971429D01*
X59685714Y-55028572D01*
X59571429Y-55028572D01*
X59457143Y-54971429D01*
X59400000Y-54914286D01*
X59342857Y-54800000D01*
X59342857Y-54514286D01*
X59400000Y-54342857D01*
X59136000Y-57485714D02*
X59136000Y-54114286D01*
X56742857Y-56457142D02*
X57942857Y-56171428D01*
X57085714Y-55942857D01*
X57942857Y-55714285D01*
X56742857Y-55428571D01*
X57314286Y-54971428D02*
X57314286Y-54571428D01*
X57942857Y-54399999D02*
X57942857Y-54971428D01*
X56742857Y-54971428D01*
X56742857Y-54399999D01*
X56536000Y-56628571D02*
X56536000Y-54171428D01*
X55142857Y-56085714D02*
X53942857Y-56085714D01*
X53942857Y-55799999D01*
X54000000Y-55628571D01*
X54114286Y-55514285D01*
X54228571Y-55457142D01*
X54457143Y-55399999D01*
X54628571Y-55399999D01*
X54857143Y-55457142D01*
X54971429Y-55514285D01*
X55085714Y-55628571D01*
X55142857Y-55799999D01*
X55142857Y-56085714D01*
X54342857Y-54371428D02*
X55142857Y-54371428D01*
X53885714Y-54657142D02*
X54742857Y-54942857D01*
X54742857Y-54199999D01*
X55142857Y-61485714D02*
X53942857Y-61485714D01*
X53942857Y-61199999D01*
X54000000Y-61028571D01*
X54114286Y-60914285D01*
X54228571Y-60857142D01*
X54457143Y-60799999D01*
X54628571Y-60799999D01*
X54857143Y-60857142D01*
X54971429Y-60914285D01*
X55085714Y-61028571D01*
X55142857Y-61199999D01*
X55142857Y-61485714D01*
X53942857Y-60399999D02*
X53942857Y-59657142D01*
X54400000Y-60057142D01*
X54400000Y-59885714D01*
X54457143Y-59771428D01*
X54514286Y-59714285D01*
X54628571Y-59657142D01*
X54914286Y-59657142D01*
X55028571Y-59714285D01*
X55085714Y-59771428D01*
X55142857Y-59885714D01*
X55142857Y-60228571D01*
X55085714Y-60342857D01*
X55028571Y-60399999D01*
X55142857Y-72885714D02*
X53942857Y-72885714D01*
X53942857Y-72599999D01*
X54000000Y-72428571D01*
X54114286Y-72314285D01*
X54228571Y-72257142D01*
X54457143Y-72199999D01*
X54628571Y-72199999D01*
X54857143Y-72257142D01*
X54971429Y-72314285D01*
X55085714Y-72428571D01*
X55142857Y-72599999D01*
X55142857Y-72885714D01*
X54057143Y-71742857D02*
X54000000Y-71685714D01*
X53942857Y-71571428D01*
X53942857Y-71285714D01*
X54000000Y-71171428D01*
X54057143Y-71114285D01*
X54171429Y-71057142D01*
X54285714Y-71057142D01*
X54457143Y-71114285D01*
X55142857Y-71799999D01*
X55142857Y-71057142D01*
X55142857Y-84285714D02*
X53942857Y-84285714D01*
X53942857Y-83999999D01*
X54000000Y-83828571D01*
X54114286Y-83714285D01*
X54228571Y-83657142D01*
X54457143Y-83599999D01*
X54628571Y-83599999D01*
X54857143Y-83657142D01*
X54971429Y-83714285D01*
X55085714Y-83828571D01*
X55142857Y-83999999D01*
X55142857Y-84285714D01*
X55142857Y-82457142D02*
X55142857Y-83142857D01*
X55142857Y-82799999D02*
X53942857Y-82799999D01*
X54114286Y-82914285D01*
X54228571Y-83028571D01*
X54285714Y-83142857D01*
X94800000Y-88057143D02*
X94800000Y-87485714D01*
X95142857Y-88171428D02*
X93942857Y-87771428D01*
X95142857Y-87371428D01*
X93942857Y-87085714D02*
X93942857Y-86285714D01*
X95142857Y-86800000D01*
X92200000Y-88057143D02*
X92200000Y-87485714D01*
X92542857Y-88171428D02*
X91342857Y-87771428D01*
X92542857Y-87371428D01*
X91342857Y-86457143D02*
X91342857Y-86685714D01*
X91400000Y-86800000D01*
X91457143Y-86857143D01*
X91628571Y-86971429D01*
X91857143Y-87028572D01*
X92314286Y-87028572D01*
X92428571Y-86971429D01*
X92485714Y-86914286D01*
X92542857Y-86800000D01*
X92542857Y-86571429D01*
X92485714Y-86457143D01*
X92428571Y-86400000D01*
X92314286Y-86342857D01*
X92028571Y-86342857D01*
X91914286Y-86400000D01*
X91857143Y-86457143D01*
X91800000Y-86571429D01*
X91800000Y-86800000D01*
X91857143Y-86914286D01*
X91914286Y-86971429D01*
X92028571Y-87028572D01*
X89600000Y-88057143D02*
X89600000Y-87485714D01*
X89942857Y-88171428D02*
X88742857Y-87771428D01*
X89942857Y-87371428D01*
X89142857Y-86457143D02*
X89942857Y-86457143D01*
X88685714Y-86742857D02*
X89542857Y-87028572D01*
X89542857Y-86285714D01*
X87200000Y-88057143D02*
X87200000Y-87485714D01*
X87542857Y-88171428D02*
X86342857Y-87771428D01*
X87542857Y-87371428D01*
X86342857Y-87085714D02*
X86342857Y-86342857D01*
X86800000Y-86742857D01*
X86800000Y-86571429D01*
X86857143Y-86457143D01*
X86914286Y-86400000D01*
X87028571Y-86342857D01*
X87314286Y-86342857D01*
X87428571Y-86400000D01*
X87485714Y-86457143D01*
X87542857Y-86571429D01*
X87542857Y-86914286D01*
X87485714Y-87028572D01*
X87428571Y-87085714D01*
X84600000Y-88057143D02*
X84600000Y-87485714D01*
X84942857Y-88171428D02*
X83742857Y-87771428D01*
X84942857Y-87371428D01*
X83742857Y-86457143D02*
X83742857Y-86685714D01*
X83800000Y-86800000D01*
X83857143Y-86857143D01*
X84028571Y-86971429D01*
X84257143Y-87028572D01*
X84714286Y-87028572D01*
X84828571Y-86971429D01*
X84885714Y-86914286D01*
X84942857Y-86800000D01*
X84942857Y-86571429D01*
X84885714Y-86457143D01*
X84828571Y-86400000D01*
X84714286Y-86342857D01*
X84428571Y-86342857D01*
X84314286Y-86400000D01*
X84257143Y-86457143D01*
X84200000Y-86571429D01*
X84200000Y-86800000D01*
X84257143Y-86914286D01*
X84314286Y-86971429D01*
X84428571Y-87028572D01*
X82542857Y-88085714D02*
X81342857Y-88085714D01*
X81342857Y-87799999D01*
X81400000Y-87628571D01*
X81514286Y-87514285D01*
X81628571Y-87457142D01*
X81857143Y-87399999D01*
X82028571Y-87399999D01*
X82257143Y-87457142D01*
X82371429Y-87514285D01*
X82485714Y-87628571D01*
X82542857Y-87799999D01*
X82542857Y-88085714D01*
X81342857Y-86657142D02*
X81342857Y-86542857D01*
X81400000Y-86428571D01*
X81457143Y-86371428D01*
X81571429Y-86314285D01*
X81800000Y-86257142D01*
X82085714Y-86257142D01*
X82314286Y-86314285D01*
X82428571Y-86371428D01*
X82485714Y-86428571D01*
X82542857Y-86542857D01*
X82542857Y-86657142D01*
X82485714Y-86771428D01*
X82428571Y-86828571D01*
X82314286Y-86885714D01*
X82085714Y-86942857D01*
X81800000Y-86942857D01*
X81571429Y-86885714D01*
X81457143Y-86828571D01*
X81400000Y-86771428D01*
X81342857Y-86657142D01*
X80028571Y-87114285D02*
X80085714Y-87171428D01*
X80142857Y-87342857D01*
X80142857Y-87457143D01*
X80085714Y-87628571D01*
X79971429Y-87742857D01*
X79857143Y-87800000D01*
X79628571Y-87857143D01*
X79457143Y-87857143D01*
X79228571Y-87800000D01*
X79114286Y-87742857D01*
X79000000Y-87628571D01*
X78942857Y-87457143D01*
X78942857Y-87342857D01*
X79000000Y-87171428D01*
X79057143Y-87114285D01*
X79800000Y-86657143D02*
X79800000Y-86085714D01*
X80142857Y-86771428D02*
X78942857Y-86371428D01*
X80142857Y-85971428D01*
X80085714Y-85628572D02*
X80142857Y-85457143D01*
X80142857Y-85171429D01*
X80085714Y-85057143D01*
X80028571Y-85000000D01*
X79914286Y-84942857D01*
X79800000Y-84942857D01*
X79685714Y-85000000D01*
X79628571Y-85057143D01*
X79571429Y-85171429D01*
X79514286Y-85400000D01*
X79457143Y-85514286D01*
X79400000Y-85571429D01*
X79285714Y-85628572D01*
X79171429Y-85628572D01*
X79057143Y-85571429D01*
X79000000Y-85514286D01*
X78942857Y-85400000D01*
X78942857Y-85114286D01*
X79000000Y-84942857D01*
X78736000Y-88085714D02*
X78736000Y-84714286D01*
X76200000Y-87314285D02*
X76142857Y-87428571D01*
X76142857Y-87600000D01*
X76200000Y-87771428D01*
X76314286Y-87885714D01*
X76428571Y-87942857D01*
X76657143Y-88000000D01*
X76828571Y-88000000D01*
X77057143Y-87942857D01*
X77171429Y-87885714D01*
X77285714Y-87771428D01*
X77342857Y-87600000D01*
X77342857Y-87485714D01*
X77285714Y-87314285D01*
X77228571Y-87257142D01*
X76828571Y-87257142D01*
X76828571Y-87485714D01*
X77342857Y-86742857D02*
X76142857Y-86742857D01*
X77342857Y-86057142D01*
X76142857Y-86057142D01*
X77342857Y-85485714D02*
X76142857Y-85485714D01*
X76142857Y-85199999D01*
X76200000Y-85028571D01*
X76314286Y-84914285D01*
X76428571Y-84857142D01*
X76657143Y-84799999D01*
X76828571Y-84799999D01*
X77057143Y-84857142D01*
X77171429Y-84914285D01*
X77285714Y-85028571D01*
X77342857Y-85199999D01*
X77342857Y-85485714D01*
X53971428Y-90600000D02*
X53914286Y-90542857D01*
X53800000Y-90371429D01*
X53742857Y-90257143D01*
X53685714Y-90085714D01*
X53628571Y-89800000D01*
X53628571Y-89571429D01*
X53685714Y-89285714D01*
X53742857Y-89114286D01*
X53800000Y-89000000D01*
X53914286Y-88828571D01*
X53971428Y-88771429D01*
X54942857Y-90085714D02*
X54828571Y-90142857D01*
X54600000Y-90142857D01*
X54485714Y-90085714D01*
X54428571Y-90028571D01*
X54371428Y-89914286D01*
X54371428Y-89571429D01*
X54428571Y-89457143D01*
X54485714Y-89400000D01*
X54600000Y-89342857D01*
X54828571Y-89342857D01*
X54942857Y-89400000D01*
X55342857Y-90600000D02*
X55399999Y-90542857D01*
X55514285Y-90371429D01*
X55571428Y-90257143D01*
X55628571Y-90085714D01*
X55685714Y-89800000D01*
X55685714Y-89571429D01*
X55628571Y-89285714D01*
X55571428Y-89114286D01*
X55514285Y-89000000D01*
X55399999Y-88828571D01*
X55342857Y-88771429D01*
X57114285Y-89057143D02*
X57171428Y-89000000D01*
X57285714Y-88942857D01*
X57571428Y-88942857D01*
X57685714Y-89000000D01*
X57742857Y-89057143D01*
X57800000Y-89171429D01*
X57800000Y-89285714D01*
X57742857Y-89457143D01*
X57057143Y-90142857D01*
X57800000Y-90142857D01*
X58542857Y-88942857D02*
X58657142Y-88942857D01*
X58771428Y-89000000D01*
X58828571Y-89057143D01*
X58885714Y-89171429D01*
X58942857Y-89400000D01*
X58942857Y-89685714D01*
X58885714Y-89914286D01*
X58828571Y-90028571D01*
X58771428Y-90085714D01*
X58657142Y-90142857D01*
X58542857Y-90142857D01*
X58428571Y-90085714D01*
X58371428Y-90028571D01*
X58314285Y-89914286D01*
X58257142Y-89685714D01*
X58257142Y-89400000D01*
X58314285Y-89171429D01*
X58371428Y-89057143D01*
X58428571Y-89000000D01*
X58542857Y-88942857D01*
X60085714Y-90142857D02*
X59399999Y-90142857D01*
X59742857Y-90142857D02*
X59742857Y-88942857D01*
X59628571Y-89114286D01*
X59514285Y-89228571D01*
X59399999Y-89285714D01*
X61114285Y-88942857D02*
X60885714Y-88942857D01*
X60771428Y-89000000D01*
X60714285Y-89057143D01*
X60599999Y-89228571D01*
X60542856Y-89457143D01*
X60542856Y-89914286D01*
X60599999Y-90028571D01*
X60657142Y-90085714D01*
X60771428Y-90142857D01*
X60999999Y-90142857D01*
X61114285Y-90085714D01*
X61171428Y-90028571D01*
X61228571Y-89914286D01*
X61228571Y-89628571D01*
X61171428Y-89514286D01*
X61114285Y-89457143D01*
X60999999Y-89400000D01*
X60771428Y-89400000D01*
X60657142Y-89457143D01*
X60599999Y-89514286D01*
X60542856Y-89628571D01*
X62657142Y-90142857D02*
X62657142Y-88942857D01*
X63114285Y-88942857D01*
X63228571Y-89000000D01*
X63285714Y-89057143D01*
X63342857Y-89171429D01*
X63342857Y-89342857D01*
X63285714Y-89457143D01*
X63228571Y-89514286D01*
X63114285Y-89571429D01*
X62657142Y-89571429D01*
X63857142Y-90028571D02*
X63914285Y-90085714D01*
X63857142Y-90142857D01*
X63799999Y-90085714D01*
X63857142Y-90028571D01*
X63857142Y-90142857D01*
X64314286Y-88942857D02*
X64600000Y-90142857D01*
X64828571Y-89285714D01*
X65057143Y-90142857D01*
X65342857Y-88942857D01*
X65800000Y-90142857D02*
X65800000Y-89342857D01*
X65800000Y-88942857D02*
X65742857Y-89000000D01*
X65800000Y-89057143D01*
X65857143Y-89000000D01*
X65800000Y-88942857D01*
X65800000Y-89057143D01*
X66314286Y-90085714D02*
X66428572Y-90142857D01*
X66657144Y-90142857D01*
X66771429Y-90085714D01*
X66828572Y-89971429D01*
X66828572Y-89914286D01*
X66771429Y-89800000D01*
X66657144Y-89742857D01*
X66485715Y-89742857D01*
X66371429Y-89685714D01*
X66314286Y-89571429D01*
X66314286Y-89514286D01*
X66371429Y-89400000D01*
X66485715Y-89342857D01*
X66657144Y-89342857D01*
X66771429Y-89400000D01*
X67228573Y-89342857D02*
X67857144Y-89342857D01*
X67228573Y-90142857D01*
X67857144Y-90142857D01*
X68485716Y-90142857D02*
X68371430Y-90085714D01*
X68314287Y-90028571D01*
X68257144Y-89914286D01*
X68257144Y-89571429D01*
X68314287Y-89457143D01*
X68371430Y-89400000D01*
X68485716Y-89342857D01*
X68657144Y-89342857D01*
X68771430Y-89400000D01*
X68828573Y-89457143D01*
X68885716Y-89571429D01*
X68885716Y-89914286D01*
X68828573Y-90028571D01*
X68771430Y-90085714D01*
X68657144Y-90142857D01*
X68485716Y-90142857D01*
X69285716Y-89342857D02*
X69514287Y-90142857D01*
X69742858Y-89571429D01*
X69971430Y-90142857D01*
X70200001Y-89342857D01*
X71171430Y-90142857D02*
X71171430Y-89514286D01*
X71114287Y-89400000D01*
X71000001Y-89342857D01*
X70771430Y-89342857D01*
X70657144Y-89400000D01*
X71171430Y-90085714D02*
X71057144Y-90142857D01*
X70771430Y-90142857D01*
X70657144Y-90085714D01*
X70600001Y-89971429D01*
X70600001Y-89857143D01*
X70657144Y-89742857D01*
X70771430Y-89685714D01*
X71057144Y-89685714D01*
X71171430Y-89628571D01*
X71571430Y-89342857D02*
X72028573Y-89342857D01*
X71742858Y-88942857D02*
X71742858Y-89971429D01*
X71800001Y-90085714D01*
X71914287Y-90142857D01*
X72028573Y-90142857D01*
X72314287Y-89342857D02*
X72600001Y-90142857D01*
X72885715Y-89342857D02*
X72600001Y-90142857D01*
X72485715Y-90428571D01*
X72428572Y-90485714D01*
X72314287Y-90542857D01*
D12*
X62892857Y-87407143D02*
X63035714Y-87478571D01*
X63321429Y-87478571D01*
X63464286Y-87407143D01*
X63535714Y-87264286D01*
X63535714Y-87192857D01*
X63464286Y-87050000D01*
X63321429Y-86978571D01*
X63107143Y-86978571D01*
X62964286Y-86907143D01*
X62892857Y-86764286D01*
X62892857Y-86692857D01*
X62964286Y-86550000D01*
X63107143Y-86478571D01*
X63321429Y-86478571D01*
X63464286Y-86550000D01*
X64178572Y-87478571D02*
X64178572Y-86478571D01*
X64178572Y-86764286D02*
X64250000Y-86621429D01*
X64321429Y-86550000D01*
X64464286Y-86478571D01*
X64607143Y-86478571D01*
X65750000Y-87478571D02*
X65750000Y-86692857D01*
X65678571Y-86550000D01*
X65535714Y-86478571D01*
X65250000Y-86478571D01*
X65107143Y-86550000D01*
X65750000Y-87407143D02*
X65607143Y-87478571D01*
X65250000Y-87478571D01*
X65107143Y-87407143D01*
X65035714Y-87264286D01*
X65035714Y-87121429D01*
X65107143Y-86978571D01*
X65250000Y-86907143D01*
X65607143Y-86907143D01*
X65750000Y-86835714D01*
X66464286Y-87478571D02*
X66464286Y-86478571D01*
X66464286Y-86621429D02*
X66535714Y-86550000D01*
X66678572Y-86478571D01*
X66892857Y-86478571D01*
X67035714Y-86550000D01*
X67107143Y-86692857D01*
X67107143Y-87478571D01*
X67107143Y-86692857D02*
X67178572Y-86550000D01*
X67321429Y-86478571D01*
X67535714Y-86478571D01*
X67678572Y-86550000D01*
X67750000Y-86692857D01*
X67750000Y-87478571D01*
X68464286Y-87478571D02*
X68464286Y-85978571D01*
X68464286Y-86550000D02*
X68607143Y-86478571D01*
X68892857Y-86478571D01*
X69035714Y-86550000D01*
X69107143Y-86621429D01*
X69178572Y-86764286D01*
X69178572Y-87192857D01*
X69107143Y-87335714D01*
X69035714Y-87407143D01*
X68892857Y-87478571D01*
X68607143Y-87478571D01*
X68464286Y-87407143D01*
X70035715Y-87478571D02*
X69892857Y-87407143D01*
X69821429Y-87335714D01*
X69750000Y-87192857D01*
X69750000Y-86764286D01*
X69821429Y-86621429D01*
X69892857Y-86550000D01*
X70035715Y-86478571D01*
X70250000Y-86478571D01*
X70392857Y-86550000D01*
X70464286Y-86621429D01*
X70535715Y-86764286D01*
X70535715Y-87192857D01*
X70464286Y-87335714D01*
X70392857Y-87407143D01*
X70250000Y-87478571D01*
X70035715Y-87478571D01*
X70821429Y-87621429D02*
X71964286Y-87621429D01*
X73107143Y-87478571D02*
X72250000Y-87478571D01*
X72678572Y-87478571D02*
X72678572Y-85978571D01*
X72535715Y-86192857D01*
X72392857Y-86335714D01*
X72250000Y-86407143D01*
D13*
X82075000Y-74225000D02*
X82875000Y-74225000D01*
X82075000Y-59875000D02*
X82875000Y-59875000D01*
X96425000Y-59875000D02*
X95625000Y-59875000D01*
X96425000Y-74225000D02*
X95625000Y-74225000D01*
X82075000Y-74225000D02*
X82075000Y-73425000D01*
X96425000Y-74225000D02*
X96425000Y-73425000D01*
X96425000Y-59875000D02*
X96425000Y-60675000D01*
X82075000Y-59875000D02*
X82075000Y-60675000D01*
X82875000Y-74225000D02*
X82875000Y-75500000D01*
X135026000Y-54889000D02*
X138201000Y-54889000D01*
X138201000Y-54889000D02*
X138201000Y-53111000D01*
X138201000Y-53111000D02*
X135026000Y-53111000D01*
X135026000Y-59461000D02*
X138201000Y-59461000D01*
X138201000Y-59461000D02*
X138201000Y-57683000D01*
X138201000Y-57683000D02*
X135026000Y-57683000D01*
X128930000Y-52857000D02*
X135026000Y-52857000D01*
X135026000Y-52857000D02*
X135026000Y-59715000D01*
X135026000Y-59715000D02*
X127152000Y-59715000D01*
X127025000Y-59715000D02*
X127025000Y-52857000D01*
X127152000Y-52857000D02*
X128930000Y-52857000D01*
X143099920Y-52672860D02*
X139300080Y-52672860D01*
X143099920Y-59373380D02*
X143099920Y-54374660D01*
X139300080Y-59370840D02*
X139300080Y-54372120D01*
X144103220Y-52169940D02*
X143003400Y-52169940D01*
X143602840Y-51570500D02*
X143602840Y-52769380D01*
X158890000Y-55270000D02*
X146190000Y-55270000D01*
X146190000Y-55270000D02*
X146190000Y-52730000D01*
X146190000Y-52730000D02*
X158890000Y-52730000D01*
X161710000Y-55550000D02*
X160160000Y-55550000D01*
X158890000Y-55270000D02*
X158890000Y-52730000D01*
X160160000Y-52450000D02*
X161710000Y-52450000D01*
X161710000Y-52450000D02*
X161710000Y-55550000D01*
X129550000Y-85250000D02*
X129550000Y-86800000D01*
X126450000Y-86800000D02*
X126450000Y-85250000D01*
X126450000Y-85250000D02*
X129550000Y-85250000D01*
X126730000Y-88070000D02*
X129270000Y-88070000D01*
X87520000Y-51480000D02*
X90060000Y-51480000D01*
X84700000Y-51200000D02*
X86250000Y-51200000D01*
X87520000Y-51480000D02*
X87520000Y-54020000D01*
X86250000Y-54300000D02*
X84700000Y-54300000D01*
X84700000Y-54300000D02*
X84700000Y-51200000D01*
X87520000Y-54020000D02*
X90060000Y-54020000D01*
X90060000Y-54020000D02*
X90060000Y-51480000D01*
X161800000Y-89330000D02*
X161800000Y-90880000D01*
X161800000Y-90880000D02*
X158700000Y-90880000D01*
X158700000Y-90880000D02*
X158700000Y-89330000D01*
X158980000Y-88060000D02*
X158980000Y-77900000D01*
X158980000Y-77900000D02*
X161520000Y-77900000D01*
X161520000Y-77900000D02*
X161520000Y-88060000D01*
X158980000Y-88060000D02*
X161520000Y-88060000D01*
X79730000Y-51480000D02*
X74650000Y-51480000D01*
X74650000Y-51480000D02*
X74650000Y-54020000D01*
X74650000Y-54020000D02*
X79730000Y-54020000D01*
X82550000Y-54300000D02*
X81000000Y-54300000D01*
X79730000Y-54020000D02*
X79730000Y-51480000D01*
X81000000Y-51200000D02*
X82550000Y-51200000D01*
X82550000Y-51200000D02*
X82550000Y-54300000D01*
X56090000Y-84750000D02*
X56090000Y-86300000D01*
X52990000Y-86300000D02*
X52990000Y-84750000D01*
X52990000Y-84750000D02*
X56090000Y-84750000D01*
X53270000Y-87570000D02*
X55810000Y-87570000D01*
X56090000Y-73310000D02*
X56090000Y-74860000D01*
X52990000Y-74860000D02*
X52990000Y-73310000D01*
X52990000Y-73310000D02*
X56090000Y-73310000D01*
X53270000Y-76130000D02*
X55810000Y-76130000D01*
X56090000Y-61850000D02*
X56090000Y-63400000D01*
X52990000Y-63400000D02*
X52990000Y-61850000D01*
X52990000Y-61850000D02*
X56090000Y-61850000D01*
X53270000Y-64670000D02*
X55810000Y-64670000D01*
X53270000Y-50730000D02*
X71050000Y-50730000D01*
X71050000Y-50730000D02*
X71050000Y-53270000D01*
X71050000Y-53270000D02*
X53270000Y-53270000D01*
X50450000Y-50450000D02*
X52000000Y-50450000D01*
X53270000Y-50730000D02*
X53270000Y-53270000D01*
X52000000Y-53550000D02*
X50450000Y-53550000D01*
X50450000Y-53550000D02*
X50450000Y-50450000D01*
X100310000Y-84950000D02*
X123170000Y-84950000D01*
X123170000Y-84950000D02*
X123170000Y-87490000D01*
X123170000Y-87490000D02*
X100310000Y-87490000D01*
X97490000Y-84670000D02*
X99040000Y-84670000D01*
X100310000Y-84950000D02*
X100310000Y-87490000D01*
X99040000Y-87770000D02*
X97490000Y-87770000D01*
X97490000Y-87770000D02*
X97490000Y-84670000D01*
X138610000Y-73500000D02*
X161470000Y-73500000D01*
X161470000Y-73500000D02*
X161470000Y-76040000D01*
X161470000Y-76040000D02*
X138610000Y-76040000D01*
X135790000Y-73220000D02*
X137340000Y-73220000D01*
X138610000Y-73500000D02*
X138610000Y-76040000D01*
X137340000Y-76320000D02*
X135790000Y-76320000D01*
X135790000Y-76320000D02*
X135790000Y-73220000D01*
X78070000Y-88730000D02*
X95850000Y-88730000D01*
X95850000Y-88730000D02*
X95850000Y-91270000D01*
X95850000Y-91270000D02*
X78070000Y-91270000D01*
X75250000Y-88450000D02*
X76800000Y-88450000D01*
X78070000Y-88730000D02*
X78070000Y-91270000D01*
X76800000Y-91550000D02*
X75250000Y-91550000D01*
X75250000Y-91550000D02*
X75250000Y-88450000D01*
X100310000Y-77330000D02*
X123170000Y-77330000D01*
X123170000Y-77330000D02*
X123170000Y-79870000D01*
X123170000Y-79870000D02*
X100310000Y-79870000D01*
X97490000Y-77050000D02*
X99040000Y-77050000D01*
X100310000Y-77330000D02*
X100310000Y-79870000D01*
X99040000Y-80150000D02*
X97490000Y-80150000D01*
X97490000Y-80150000D02*
X97490000Y-77050000D01*
X138610000Y-65880000D02*
X161470000Y-65880000D01*
X161470000Y-65880000D02*
X161470000Y-68420000D01*
X161470000Y-68420000D02*
X138610000Y-68420000D01*
X135790000Y-65600000D02*
X137340000Y-65600000D01*
X138610000Y-65880000D02*
X138610000Y-68420000D01*
X137340000Y-68700000D02*
X135790000Y-68700000D01*
X135790000Y-68700000D02*
X135790000Y-65600000D01*
X59700000Y-61270000D02*
X59700000Y-61385000D01*
X71100000Y-61270000D02*
X71100000Y-61385000D01*
X71100000Y-82000000D02*
X71100000Y-81885000D01*
X58100000Y-82000000D02*
X58100000Y-81885000D01*
X59700000Y-61270000D02*
X71100000Y-61270000D01*
X58100000Y-82000000D02*
X71100000Y-82000000D01*
X59700000Y-61385000D02*
X58325000Y-61385000D01*
X117750980Y-53350000D02*
X120450980Y-53350000D01*
X117750980Y-51850000D02*
X120450980Y-51850000D01*
X119250980Y-52750000D02*
X119250980Y-52500000D01*
X119250980Y-52500000D02*
X119100980Y-52650000D01*
X119000980Y-52250000D02*
X119000980Y-52950000D01*
X119350980Y-52600000D02*
X119700980Y-52600000D01*
X119000980Y-52600000D02*
X119350980Y-52250000D01*
X119350980Y-52250000D02*
X119350980Y-52950000D01*
X119350980Y-52950000D02*
X119000980Y-52600000D01*
X112400000Y-51725000D02*
X113600000Y-51725000D01*
X113600000Y-53475000D02*
X112400000Y-53475000D01*
X80638095Y-74652381D02*
X80638095Y-75461905D01*
X80685714Y-75557143D01*
X80733333Y-75604762D01*
X80828571Y-75652381D01*
X81019048Y-75652381D01*
X81114286Y-75604762D01*
X81161905Y-75557143D01*
X81209524Y-75461905D01*
X81209524Y-74652381D01*
X82209524Y-75652381D02*
X81638095Y-75652381D01*
X81923809Y-75652381D02*
X81923809Y-74652381D01*
X81828571Y-74795238D01*
X81733333Y-74890476D01*
X81638095Y-74938095D01*
X134438095Y-55738381D02*
X134438095Y-56547905D01*
X134485714Y-56643143D01*
X134533333Y-56690762D01*
X134628571Y-56738381D01*
X134819048Y-56738381D01*
X134914286Y-56690762D01*
X134961905Y-56643143D01*
X135009524Y-56547905D01*
X135009524Y-55738381D01*
X135438095Y-55833619D02*
X135485714Y-55786000D01*
X135580952Y-55738381D01*
X135819048Y-55738381D01*
X135914286Y-55786000D01*
X135961905Y-55833619D01*
X136009524Y-55928857D01*
X136009524Y-56024095D01*
X135961905Y-56166952D01*
X135390476Y-56738381D01*
X136009524Y-56738381D01*
X141033334Y-52231163D02*
X140985715Y-52278782D01*
X140842858Y-52326401D01*
X140747620Y-52326401D01*
X140604762Y-52278782D01*
X140509524Y-52183544D01*
X140461905Y-52088306D01*
X140414286Y-51897830D01*
X140414286Y-51754972D01*
X140461905Y-51564496D01*
X140509524Y-51469258D01*
X140604762Y-51374020D01*
X140747620Y-51326401D01*
X140842858Y-51326401D01*
X140985715Y-51374020D01*
X141033334Y-51421639D01*
X141890477Y-51326401D02*
X141700000Y-51326401D01*
X141604762Y-51374020D01*
X141557143Y-51421639D01*
X141461905Y-51564496D01*
X141414286Y-51754972D01*
X141414286Y-52135925D01*
X141461905Y-52231163D01*
X141509524Y-52278782D01*
X141604762Y-52326401D01*
X141795239Y-52326401D01*
X141890477Y-52278782D01*
X141938096Y-52231163D01*
X141985715Y-52135925D01*
X141985715Y-51897830D01*
X141938096Y-51802591D01*
X141890477Y-51754972D01*
X141795239Y-51707353D01*
X141604762Y-51707353D01*
X141509524Y-51754972D01*
X141461905Y-51802591D01*
X141414286Y-51897830D01*
X58238095Y-59822381D02*
X58238095Y-60631905D01*
X58285714Y-60727143D01*
X58333333Y-60774762D01*
X58428571Y-60822381D01*
X58619048Y-60822381D01*
X58714286Y-60774762D01*
X58761905Y-60727143D01*
X58809524Y-60631905D01*
X58809524Y-59822381D01*
X59190476Y-59822381D02*
X59809524Y-59822381D01*
X59476190Y-60203333D01*
X59619048Y-60203333D01*
X59714286Y-60250952D01*
X59761905Y-60298571D01*
X59809524Y-60393810D01*
X59809524Y-60631905D01*
X59761905Y-60727143D01*
X59714286Y-60774762D01*
X59619048Y-60822381D01*
X59333333Y-60822381D01*
X59238095Y-60774762D01*
X59190476Y-60727143D01*
X118612885Y-55052381D02*
X118612885Y-54052381D01*
X118850980Y-54052381D01*
X118993838Y-54100000D01*
X119089076Y-54195238D01*
X119136695Y-54290476D01*
X119184314Y-54480952D01*
X119184314Y-54623810D01*
X119136695Y-54814286D01*
X119089076Y-54909524D01*
X118993838Y-55004762D01*
X118850980Y-55052381D01*
X118612885Y-55052381D01*
X120136695Y-55052381D02*
X119565266Y-55052381D01*
X119850980Y-55052381D02*
X119850980Y-54052381D01*
X119755742Y-54195238D01*
X119660504Y-54290476D01*
X119565266Y-54338095D01*
X112833334Y-55152381D02*
X112500000Y-54676190D01*
X112261905Y-55152381D02*
X112261905Y-54152381D01*
X112642858Y-54152381D01*
X112738096Y-54200000D01*
X112785715Y-54247619D01*
X112833334Y-54342857D01*
X112833334Y-54485714D01*
X112785715Y-54580952D01*
X112738096Y-54628571D01*
X112642858Y-54676190D01*
X112261905Y-54676190D01*
X113785715Y-55152381D02*
X113214286Y-55152381D01*
X113500000Y-55152381D02*
X113500000Y-54152381D01*
X113404762Y-54295238D01*
X113309524Y-54390476D01*
X113214286Y-54438095D01*
M02*
