G04 #@! TF.FileFunction,Soldermask,Top*
%FSLAX46Y46*%
G04 Gerber Fmt 4.6, Leading zero omitted, Abs format (unit mm)*
G04 Created by KiCad (PCBNEW 4.0.3-1.fc24-product) date Sat Sep 10 15:23:13 2016*
%MOMM*%
%LPD*%
G01*
G04 APERTURE LIST*
%ADD10C,0.100000*%
%ADD11R,0.700000X1.900000*%
%ADD12R,1.900000X0.700000*%
%ADD13R,3.448000X2.051000*%
%ADD14R,6.496000X6.496000*%
%ADD15R,2.200860X3.549600*%
%ADD16O,2.127200X2.432000*%
%ADD17C,2.635200*%
%ADD18O,2.432000X2.432000*%
%ADD19O,2.432000X2.127200*%
%ADD20O,2.635200X2.635200*%
%ADD21R,2.000000X1.000000*%
%ADD22R,1.598880X1.598880*%
%ADD23R,1.900000X1.700000*%
%ADD24C,0.254000*%
G04 APERTURE END LIST*
D10*
D11*
X83250000Y-74750000D03*
X83750000Y-74750000D03*
X84250000Y-74750000D03*
X84750000Y-74750000D03*
X85250000Y-74750000D03*
X85750000Y-74750000D03*
X86250000Y-74750000D03*
X86750000Y-74750000D03*
X87250000Y-74750000D03*
X87750000Y-74750000D03*
X88250000Y-74750000D03*
X88750000Y-74750000D03*
X89250000Y-74750000D03*
X89750000Y-74750000D03*
X90250000Y-74750000D03*
X90750000Y-74750000D03*
X91250000Y-74750000D03*
X91750000Y-74750000D03*
X92250000Y-74750000D03*
X92750000Y-74750000D03*
X93250000Y-74750000D03*
X93750000Y-74750000D03*
X94250000Y-74750000D03*
X94750000Y-74750000D03*
X95250000Y-74750000D03*
D12*
X96950000Y-73050000D03*
X96950000Y-72550000D03*
X96950000Y-72050000D03*
X96950000Y-71550000D03*
X96950000Y-71050000D03*
X96950000Y-70550000D03*
X96950000Y-70050000D03*
X96950000Y-69550000D03*
X96950000Y-69050000D03*
X96950000Y-68550000D03*
X96950000Y-68050000D03*
X96950000Y-67550000D03*
X96950000Y-67050000D03*
X96950000Y-66550000D03*
X96950000Y-66050000D03*
X96950000Y-65550000D03*
X96950000Y-65050000D03*
X96950000Y-64550000D03*
X96950000Y-64050000D03*
X96950000Y-63550000D03*
X96950000Y-63050000D03*
X96950000Y-62550000D03*
X96950000Y-62050000D03*
X96950000Y-61550000D03*
X96950000Y-61050000D03*
D11*
X95250000Y-59350000D03*
X94750000Y-59350000D03*
X94250000Y-59350000D03*
X93750000Y-59350000D03*
X93250000Y-59350000D03*
X92750000Y-59350000D03*
X92250000Y-59350000D03*
X91750000Y-59350000D03*
X91250000Y-59350000D03*
X90750000Y-59350000D03*
X90250000Y-59350000D03*
X89750000Y-59350000D03*
X89250000Y-59350000D03*
X88750000Y-59350000D03*
X88250000Y-59350000D03*
X87750000Y-59350000D03*
X87250000Y-59350000D03*
X86750000Y-59350000D03*
X86250000Y-59350000D03*
X85750000Y-59350000D03*
X85250000Y-59350000D03*
X84750000Y-59350000D03*
X84250000Y-59350000D03*
X83750000Y-59350000D03*
X83250000Y-59350000D03*
D12*
X81550000Y-61050000D03*
X81550000Y-61550000D03*
X81550000Y-62050000D03*
X81550000Y-62550000D03*
X81550000Y-63050000D03*
X81550000Y-63550000D03*
X81550000Y-64050000D03*
X81550000Y-64550000D03*
X81550000Y-65050000D03*
X81550000Y-65550000D03*
X81550000Y-66050000D03*
X81550000Y-66550000D03*
X81550000Y-67050000D03*
X81550000Y-67550000D03*
X81550000Y-68050000D03*
X81550000Y-68550000D03*
X81550000Y-69050000D03*
X81550000Y-69550000D03*
X81550000Y-70050000D03*
X81550000Y-70550000D03*
X81550000Y-71050000D03*
X81550000Y-71550000D03*
X81550000Y-72050000D03*
X81550000Y-72550000D03*
X81550000Y-73050000D03*
D13*
X136550000Y-58572000D03*
D14*
X130200000Y-56286000D03*
D13*
X136550000Y-54000000D03*
D15*
X141200000Y-59000000D03*
X141200000Y-54748040D03*
D16*
X160160000Y-54000000D03*
X157620000Y-54000000D03*
X155080000Y-54000000D03*
X152540000Y-54000000D03*
X150000000Y-54000000D03*
X147460000Y-54000000D03*
D17*
X128000000Y-86800000D03*
D18*
X86250000Y-52750000D03*
X88790000Y-52750000D03*
D19*
X160250000Y-89330000D03*
X160250000Y-86790000D03*
X160250000Y-84250000D03*
X160250000Y-81710000D03*
X160250000Y-79170000D03*
D16*
X81000000Y-52750000D03*
X78460000Y-52750000D03*
X75920000Y-52750000D03*
D20*
X54540000Y-86300000D03*
X54540000Y-74860000D03*
X54540000Y-63400000D03*
D16*
X52000000Y-52000000D03*
X54540000Y-52000000D03*
X57080000Y-52000000D03*
X59620000Y-52000000D03*
X62160000Y-52000000D03*
X64700000Y-52000000D03*
X67240000Y-52000000D03*
X69780000Y-52000000D03*
X99040000Y-86220000D03*
X101580000Y-86220000D03*
X104120000Y-86220000D03*
X106660000Y-86220000D03*
X109200000Y-86220000D03*
X111740000Y-86220000D03*
X114280000Y-86220000D03*
X116820000Y-86220000D03*
X119360000Y-86220000D03*
X121900000Y-86220000D03*
X137340000Y-74770000D03*
X139880000Y-74770000D03*
X142420000Y-74770000D03*
X144960000Y-74770000D03*
X147500000Y-74770000D03*
X150040000Y-74770000D03*
X152580000Y-74770000D03*
X155120000Y-74770000D03*
X157660000Y-74770000D03*
X160200000Y-74770000D03*
X76800000Y-90000000D03*
X79340000Y-90000000D03*
X81880000Y-90000000D03*
X84420000Y-90000000D03*
X86960000Y-90000000D03*
X89500000Y-90000000D03*
X92040000Y-90000000D03*
X94580000Y-90000000D03*
X99040000Y-78600000D03*
X101580000Y-78600000D03*
X104120000Y-78600000D03*
X106660000Y-78600000D03*
X109200000Y-78600000D03*
X111740000Y-78600000D03*
X114280000Y-78600000D03*
X116820000Y-78600000D03*
X119360000Y-78600000D03*
X121900000Y-78600000D03*
X137340000Y-67150000D03*
X139880000Y-67150000D03*
X142420000Y-67150000D03*
X144960000Y-67150000D03*
X147500000Y-67150000D03*
X150040000Y-67150000D03*
X152580000Y-67150000D03*
X155120000Y-67150000D03*
X157660000Y-67150000D03*
X160200000Y-67150000D03*
D21*
X59000000Y-62110000D03*
X59000000Y-63380000D03*
X59000000Y-64650000D03*
X59000000Y-65920000D03*
X59000000Y-67190000D03*
X59000000Y-68460000D03*
X59000000Y-69730000D03*
X59000000Y-71000000D03*
X59000000Y-72270000D03*
X59000000Y-73540000D03*
X59000000Y-74810000D03*
X59000000Y-76080000D03*
X59000000Y-77350000D03*
X59000000Y-78620000D03*
X59000000Y-79890000D03*
X59000000Y-81160000D03*
X70200000Y-81160000D03*
X70200000Y-79890000D03*
X70200000Y-78620000D03*
X70200000Y-77350000D03*
X70200000Y-76080000D03*
X70200000Y-74810000D03*
X70200000Y-73540000D03*
X70200000Y-72270000D03*
X70200000Y-71000000D03*
X70200000Y-69730000D03*
X70200000Y-68460000D03*
X70200000Y-67190000D03*
X70200000Y-65920000D03*
X70200000Y-64650000D03*
X70200000Y-63380000D03*
X70200000Y-62110000D03*
D22*
X120400000Y-52600000D03*
X118301960Y-52600000D03*
D23*
X114350000Y-52600000D03*
X111650000Y-52600000D03*
D24*
G36*
X147473000Y-87273000D02*
X133327000Y-87273000D01*
X133327000Y-84127000D01*
X147473000Y-84127000D01*
X147473000Y-87273000D01*
X147473000Y-87273000D01*
G37*
X147473000Y-87273000D02*
X133327000Y-87273000D01*
X133327000Y-84127000D01*
X147473000Y-84127000D01*
X147473000Y-87273000D01*
M02*
