M48
;DRILL file {KiCad 4.0.3-1.fc24-product} date Sat Sep 10 15:23:16 2016
;FORMAT={-:-/ absolute / inch / decimal}
FMAT,2
INCH,TZ
T1C0.016
T2C0.031
T3C0.040
%
G90
G05
M72
T1
X2.372Y-3.3563
X2.5787Y-2.4311
X2.6378Y-2.4311
X2.6772Y-3.1453
X2.6969Y-2.1457
X2.7007Y-2.4311
X2.7461Y-2.1752
X2.7933Y-2.2065
X2.8642Y-3.1953
X3.1153Y-2.2369
X3.1153Y-2.5492
X3.2677Y-2.561
X3.2677Y-2.876
X3.2776Y-2.3917
X3.2874Y-2.6398
X3.2874Y-2.8051
X3.3563Y-2.8839
X3.3957Y-2.3917
X3.5335Y-2.3917
X3.6319Y-2.4114
X3.6713Y-2.8839
X3.75Y-2.4114
X3.75Y-2.6398
X3.75Y-2.876
X3.7598Y-2.5217
X3.7598Y-2.7776
X4.3071Y-2.0709
X4.7605Y-2.6411
X4.797Y-2.6794
X4.8266Y-2.7126
X5.0879Y-2.4267
X5.1181Y-2.4646
X5.1765Y-2.4564
T2
X2.2441Y-3.1953
X2.8445Y-2.9453
X2.8543Y-2.4453
X4.9291Y-2.216
X5.6398Y-2.3228
X5.7382Y-2.372
T3
X2.0472Y-2.0472
X2.1472Y-2.0472
X2.1472Y-2.4961
X2.1472Y-2.9472
X2.1472Y-3.3976
X2.2472Y-2.0472
X2.3472Y-2.0472
X2.4472Y-2.0472
X2.5472Y-2.0472
X2.6472Y-2.0472
X2.7472Y-2.0472
X2.989Y-2.0768
X3.0236Y-3.5433
X3.089Y-2.0768
X3.1236Y-3.5433
X3.189Y-2.0768
X3.2236Y-3.5433
X3.3236Y-3.5433
X3.3957Y-2.0768
X3.4236Y-3.5433
X3.4957Y-2.0768
X3.5236Y-3.5433
X3.6236Y-3.5433
X3.7236Y-3.5433
X3.8992Y-3.0945
X3.8992Y-3.3945
X3.9992Y-3.0945
X3.9992Y-3.3945
X4.0992Y-3.0945
X4.0992Y-3.3945
X4.1992Y-3.0945
X4.1992Y-3.3945
X4.2992Y-3.0945
X4.2992Y-3.3945
X4.3992Y-3.0945
X4.3992Y-3.3945
X4.4992Y-3.0945
X4.4992Y-3.3945
X4.5992Y-3.0945
X4.5992Y-3.3945
X4.6992Y-3.0945
X4.6992Y-3.3945
X4.7992Y-3.0945
X4.7992Y-3.3945
X5.0394Y-3.4173
X5.4071Y-2.6437
X5.4071Y-2.9437
X5.5071Y-2.6437
X5.5071Y-2.9437
X5.6071Y-2.6437
X5.6071Y-2.9437
X5.7071Y-2.6437
X5.7071Y-2.9437
X5.8055Y-2.126
X5.8071Y-2.6437
X5.8071Y-2.9437
X5.9055Y-2.126
X5.9071Y-2.6437
X5.9071Y-2.9437
X6.0055Y-2.126
X6.0071Y-2.6437
X6.0071Y-2.9437
X6.1055Y-2.126
X6.1071Y-2.6437
X6.1071Y-2.9437
X6.2055Y-2.126
X6.2071Y-2.6437
X6.2071Y-2.9437
X6.3055Y-2.126
X6.3071Y-2.6437
X6.3071Y-2.9437
X6.3091Y-3.1169
X6.3091Y-3.2169
X6.3091Y-3.3169
X6.3091Y-3.4169
X6.3091Y-3.5169
T0
M30
